<svg width="82" height="78" viewBox="0 0 82 78" fill="none" xmlns="http://www.w3.org/2000/svg">
<ellipse cx="40.9937" cy="39.3088" rx="40.9601" ry="38.6853" fill="#D1D8FD"/>
<path d="M27.4 27H54.6C55.5017 27 56.3665 27.3278 57.0042 27.9112C57.6418 28.4947 58 29.286 58 30.1111V39.4444C58 43.57 56.2089 47.5267 53.0208 50.4439C49.8327 53.3611 45.5087 55 41 55C38.7675 55 36.5569 54.5976 34.4944 53.8159C32.4318 53.0342 30.5578 51.8884 28.9792 50.4439C25.7911 47.5267 24 43.57 24 39.4444V30.1111C24 29.286 24.3582 28.4947 24.9958 27.9112C25.6335 27.3278 26.4983 27 27.4 27Z" fill="white" stroke="#00114B" stroke-width="2" stroke-linecap="round" stroke-linejoin="round"/>
<path d="M34 38L41 44L48 38" stroke="#00114B" stroke-width="2" stroke-linecap="round" stroke-linejoin="round"/>
</svg>
