<svg width="82" height="79" viewBox="0 0 82 79" fill="none" xmlns="http://www.w3.org/2000/svg">
<ellipse cx="40.9936" cy="39.5979" rx="40.9601" ry="38.6853" fill="#DED9FF"/>
<path d="M57.0834 49.7083C57.0834 50.4819 56.7761 51.2237 56.2291 51.7707C55.6822 52.3177 54.9403 52.625 54.1668 52.625H30.8334C30.0599 52.625 29.318 52.3177 28.771 51.7707C28.224 51.2237 27.9167 50.4819 27.9167 49.7083V29.2917C27.9167 28.5181 28.224 27.7763 28.771 27.2293C29.318 26.6823 30.0599 26.375 30.8334 26.375H38.1251L41.0417 30.75H54.1668C54.9403 30.75 55.6822 31.0573 56.2291 31.6043C56.7761 32.1513 57.0834 32.8931 57.0834 33.6667V49.7083Z" fill="white" stroke="#2E1563" stroke-width="2" stroke-linecap="round" stroke-linejoin="round"/>
</svg>
