<svg width="807" height="587" viewBox="0 0 807 587" fill="none" xmlns="http://www.w3.org/2000/svg">
<path opacity="0.1" d="M403.5 583.992C626.347 583.992 807 572.501 807 558.326C807 544.151 626.347 532.66 403.5 532.66C180.653 532.66 0 544.151 0 558.326C0 572.501 180.653 583.992 403.5 583.992Z" fill="#51A1E3"/>
<path d="M732.708 563.317C732.714 565.346 732.508 567.369 732.093 569.353C732.016 569.726 731.932 570.131 731.847 570.45C729.665 579.308 723.508 585.787 716.161 586.199C715.915 586.199 715.669 586.199 715.392 586.199C707.622 586.199 701.051 579.417 698.883 570.076C698.822 569.827 698.768 569.578 698.714 569.298C698.3 567.314 698.094 565.291 698.099 563.263C698.099 550.609 705.839 540.358 715.392 540.358C724.946 540.358 732.708 550.679 732.708 563.317Z" fill="#3F3D56"/>
<path opacity="0.1" d="M732.708 563.317C732.714 565.346 732.508 567.369 732.093 569.353C732.016 569.726 731.932 570.131 731.847 570.449C731.586 570.449 731.332 570.449 731.079 570.449C729.175 570.346 727.284 570.086 725.422 569.672C723.773 570.188 722.087 570.578 720.38 570.838C719.071 571.038 717.752 571.162 716.43 571.212H715.092C713.509 571.212 711.927 571.105 710.358 570.893C707.82 570.55 705.328 569.924 702.926 569.026C701.611 569.469 700.271 569.833 698.914 570.115C698.852 569.866 698.799 569.617 698.745 569.337C698.33 567.353 698.124 565.33 698.13 563.302C698.13 550.648 705.87 540.397 715.423 540.397C724.976 540.397 732.708 550.679 732.708 563.317Z" fill="black"/>
<path d="M780.6 496.657C780.606 491.091 779.316 485.602 776.834 480.635L756.497 487.036L774.351 476.412C771.358 472.033 767.431 468.391 762.86 465.753C758.289 463.116 753.191 461.552 747.943 461.175C747.106 459.894 746.189 458.668 745.199 457.504L715.993 466.705L739.95 452.457C735.367 448.899 729.989 446.54 724.291 445.586C718.592 444.632 712.75 445.114 707.279 446.988C701.809 448.863 696.879 452.072 692.925 456.333C688.972 460.594 686.117 465.775 684.613 471.419L709.63 500.569L682.491 480.697C675.61 485.629 670.71 492.899 668.684 501.182C666.658 509.465 667.642 518.209 671.455 525.819C675.269 533.43 681.659 539.399 689.459 542.64C697.26 545.88 705.952 546.175 713.949 543.471C721.183 546.154 729.085 546.372 736.453 544.093C741.589 545.243 746.916 545.211 752.039 544.001C757.162 542.791 761.951 540.432 766.053 537.1C770.156 533.767 773.467 529.545 775.742 524.745C778.018 519.945 779.199 514.689 779.201 509.366C779.201 508.588 779.201 507.81 779.124 507.032C780.12 503.667 780.617 500.17 780.6 496.657Z" fill="#BDA6FA"/>
<path opacity="0.1" d="M779.992 503.26C769.253 501.196 758.239 501.054 747.451 502.84C735.238 504.886 722.757 509.381 710.813 506.091C703.804 504.163 697.747 499.698 690.9 497.225C684.294 494.886 677.175 494.452 670.34 495.973C667.734 502.278 666.976 509.21 668.159 515.94C669.342 522.669 672.414 528.912 677.01 533.921C681.605 538.931 687.528 542.495 694.072 544.189C700.616 545.882 707.503 545.633 713.911 543.471C721.144 546.154 729.046 546.372 736.414 544.093C741.551 545.243 746.877 545.211 752 544.001C757.123 542.791 761.912 540.432 766.015 537.1C770.117 533.767 773.428 529.545 775.704 524.745C777.979 519.945 779.161 514.689 779.162 509.366C779.162 508.588 779.162 507.81 779.085 507.032C779.456 505.793 779.759 504.534 779.992 503.26Z" fill="black"/>
<path d="M536.924 133.744H532.52C531.548 133.744 530.76 134.542 530.76 135.525V198.089C530.76 199.073 531.548 199.87 532.52 199.87H536.924C537.896 199.87 538.684 199.073 538.684 198.089V135.525C538.684 134.542 537.896 133.744 536.924 133.744Z" fill="#3F3D56"/>
<path d="M270.575 81.9375H268.431C267.794 81.9375 267.278 82.4598 267.278 83.1041V102.54C267.278 103.185 267.794 103.707 268.431 103.707H270.575C271.212 103.707 271.728 103.185 271.728 102.54V83.1041C271.728 82.4598 271.212 81.9375 270.575 81.9375Z" fill="#3F3D56"/>
<path d="M270.829 121.798H268.416C267.698 121.798 267.117 122.386 267.117 123.112V158.376C267.117 159.102 267.698 159.691 268.416 159.691H270.829C271.546 159.691 272.128 159.102 272.128 158.376V123.112C272.128 122.386 271.546 121.798 270.829 121.798Z" fill="#3F3D56"/>
<path d="M270.729 172.944H268.431C267.748 172.944 267.194 173.504 267.194 174.196V209.911C267.194 210.602 267.748 211.163 268.431 211.163H270.729C271.413 211.163 271.967 210.602 271.967 209.911V174.196C271.967 173.504 271.413 172.944 270.729 172.944Z" fill="#3F3D56"/>
<path d="M507.603 10.0021H297.23C282.08 10.0021 269.799 22.4299 269.799 37.7605V527.744C269.799 543.075 282.08 555.503 297.23 555.503H507.603C522.752 555.503 535.033 543.075 535.033 527.744V37.7605C535.033 22.4299 522.752 10.0021 507.603 10.0021Z" fill="#3F3D56"/>
<path d="M411.916 26.2885H378.783C377.705 26.2885 376.831 27.1729 376.831 28.264V31.9272C376.831 33.0183 377.705 33.9028 378.783 33.9028H411.916C412.994 33.9028 413.868 33.0183 413.868 31.9272V28.264C413.868 27.1729 412.994 26.2885 411.916 26.2885Z" fill="#E6E8EC"/>
<path d="M423.736 34.4082C426.092 34.4082 428.002 32.4756 428.002 30.0916C428.002 27.7076 426.092 25.775 423.736 25.775C421.381 25.775 419.471 27.7076 419.471 30.0916C419.471 32.4756 421.381 34.4082 423.736 34.4082Z" fill="#E6E8EC"/>
<path d="M520.272 45.7795V519.595C520.27 525.241 518.04 530.654 514.071 534.645C510.102 538.636 504.72 540.878 499.109 540.878H307.891C302.28 540.878 296.898 538.636 292.929 534.645C288.96 530.654 286.73 525.241 286.728 519.595V45.7795C286.728 42.9836 287.275 40.2151 288.339 37.632C289.402 35.0489 290.961 32.7018 292.926 30.7248C294.892 28.7478 297.225 27.1795 299.792 26.1095C302.36 25.0396 305.112 24.4889 307.891 24.4889H336.505V28.1862C336.513 32.8311 338.352 37.283 341.619 40.5653C344.886 43.8476 349.314 45.692 353.931 45.6941H451.216C453.504 45.6941 455.77 45.2406 457.884 44.3596C459.999 43.4786 461.92 42.1872 463.538 40.5593C465.156 38.9314 466.44 36.9988 467.315 34.8718C468.191 32.7448 468.642 30.4651 468.642 28.1629V24.4889H499.148C504.754 24.4992 510.127 26.7468 514.087 30.7385C518.048 34.7301 520.272 40.1396 520.272 45.7795Z" fill="white"/>
<path opacity="0.2" d="M520.323 241.434V402.765H518.655V402.929H286.177V205.828C287.669 204.106 289.18 202.32 290.712 200.469C323.361 161.013 367.738 150.63 402.086 149.541C425.619 148.763 449.045 153.686 471.411 163.463C483.224 168.627 500.179 174.289 518.655 174.849V235.842C519.785 239.1 520.323 241.434 520.323 241.434Z" fill="#C4B0FB"/>
<path opacity="0.2" d="M522.877 232.023V393.355H288.732V287.672C297.071 285.549 308.715 277.382 323.656 254.819C341.525 227.823 365.804 220.722 384.596 219.975C397.469 219.462 410.289 222.806 422.525 229.503C436.29 237.024 462.821 246.093 482.981 219.765C505.269 190.654 517.121 214.663 521.209 226.431C522.339 229.69 522.877 232.023 522.877 232.023Z" fill="#C4AFFB"/>
<path d="M486.506 373.218H318.957C313.864 373.218 309.734 377.397 309.734 382.551V422.995C309.734 428.15 313.864 432.328 318.957 432.328H486.506C491.599 432.328 495.729 428.15 495.729 422.995V382.551C495.729 377.397 491.599 373.218 486.506 373.218Z" fill="#736E9E"/>
<path d="M103.035 531.765L117.745 522.984C115.756 519.546 113.213 516.467 110.221 513.877L82.4678 522.642L104.218 509.7C98.8342 506.715 92.7747 505.201 86.6365 505.306C80.4982 505.411 74.4927 507.131 69.2111 510.298C63.9295 513.465 59.5537 517.969 56.5146 523.367C53.4755 528.765 51.8778 534.87 51.8787 541.083C51.8787 560.846 67.7035 561.53 87.2329 561.53C106.762 561.53 122.587 560.846 122.587 541.083C122.594 536.083 121.56 531.138 119.551 526.57L103.035 531.765Z" fill="#C2AAFA"/>
<path opacity="0.1" d="M106.778 550.984C105.212 549.395 103.462 548.003 101.567 546.838C98.892 545.042 96.1329 543.214 92.9817 542.6C90.2149 542.063 87.3635 542.514 84.5275 542.358C79.6342 542.053 75.0285 539.916 71.6078 536.362C69.6018 534.262 68.0185 531.695 65.6052 530.07C62.9998 528.343 59.6949 527.97 56.6053 528.398C55.7099 528.534 54.8223 528.719 53.946 528.95C52.5589 532.844 51.8516 536.952 51.8555 541.091C51.8555 560.854 67.6804 561.538 87.2098 561.538C96.6863 561.538 105.287 561.375 111.635 558.948L110.574 556.942C109.563 554.801 108.287 552.799 106.778 550.984Z" fill="black"/>
<path d="M175.419 452.884C174.295 453.882 173.43 455.142 172.898 456.556C171.584 460.709 175.257 464.784 175.611 469.132C175.888 472.585 174.074 475.805 173.044 479.118C171.882 483.234 171.957 487.607 173.26 491.68C174.563 495.752 177.035 499.34 180.361 501.985C181.069 502.593 181.905 503.029 182.805 503.26C183.547 503.351 184.301 503.287 185.018 503.073C185.736 502.859 186.403 502.499 186.978 502.016C188.763 500.702 190.124 498.884 190.89 496.789C191.528 494.731 191.872 492.591 191.912 490.435L192.458 482.113C193.027 473.425 193.542 464.465 191.451 455.933C190.767 453.133 189.499 446.701 186.302 446.312C183.104 445.923 177.54 450.784 175.419 452.884Z" fill="#3F3D56"/>
<path d="M229.034 417.138C225.195 430.782 222.412 444.707 220.711 458.788C220.465 460.771 220.211 462.855 219.027 464.458C216.668 467.67 211.941 467.467 208.021 466.946C207.081 466.896 206.163 466.63 205.339 466.169C203.863 465.158 203.541 463.135 203.364 461.339C200.679 434.853 198.886 408.298 197.984 381.672C197.945 380.653 230.794 380.56 233.607 383.228C236.42 385.896 234.237 395.874 233.607 399.273C232.577 405.324 230.717 411.22 229.034 417.138Z" fill="#FBBEBE"/>
<path opacity="0.05" d="M229.034 417.138C225.195 430.782 222.412 444.707 220.711 458.788C220.465 460.771 220.211 462.855 219.027 464.458C216.668 467.67 211.941 467.467 208.021 466.946C207.081 466.896 206.163 466.63 205.339 466.169C203.863 465.158 203.541 463.135 203.364 461.339C200.679 434.853 198.886 408.298 197.984 381.672C197.945 380.653 230.794 380.56 233.607 383.228C236.42 385.896 234.237 395.874 233.607 399.273C232.577 405.324 230.717 411.22 229.034 417.138Z" fill="black"/>
<path d="M160.631 377.885L173.935 407.494C178.362 417.341 182.82 427.296 184.934 437.897C185.781 442.325 186.323 446.809 186.555 451.313C186.876 455.175 186.758 459.06 186.202 462.894C185.718 465.741 184.826 468.51 184.434 471.372C182.897 482.782 189.284 493.515 193.657 504.131C197.435 513.249 199.84 522.889 200.789 532.73C201.189 536.922 201.412 541.371 203.779 544.832C208.106 543.517 212.333 542.382 216.845 542.895C217.652 536.199 213.471 530.031 211.934 523.451C209.113 511.396 215.346 498.726 213.225 486.523C212.072 479.912 208.498 473.69 208.79 466.985C209.336 454.759 211.603 442.408 209.297 430.43C206.7 416.889 199.229 404.577 197.577 390.889C196.308 380.373 198.345 368.746 192.558 359.91C179.915 359.156 166.841 366.708 160.631 377.885Z" fill="#FBBEBE"/>
<path d="M204.356 563.833C203.026 563.879 201.473 563.833 200.651 562.767C200.25 562.147 200.019 561.43 199.982 560.69C199.353 556.002 199.045 551.275 199.06 546.543C199.06 544.816 199.137 542.981 200.09 541.557C200.789 540.689 201.586 539.906 202.465 539.224C204.502 537.319 205.985 534.557 208.613 533.679C209.765 533.34 210.986 533.323 212.146 533.632C213.306 533.94 214.362 534.561 215.2 535.429C216.859 537.218 217.886 539.512 218.121 541.954C218.505 544.847 218.182 547.997 219.696 550.509C220.296 551.482 221.134 552.275 221.81 553.193C224.116 556.304 226.183 562.394 221.426 563.654C216.384 564.984 209.59 563.662 204.356 563.833Z" fill="#3F3D56"/>
<path d="M215.892 202.654C218.582 197.397 216.975 190.63 213.132 186.166C209.29 181.701 203.671 179.212 197.938 177.867C190.252 176.047 182.013 176.062 174.658 178.925C168.794 181.203 163.744 185.147 158.333 188.367C148.771 194.063 138.069 197.518 127.014 198.478C114.717 199.528 100.982 197.894 91.4753 205.82C74.0594 220.333 86.1875 253.038 69.9553 268.873C65.5744 273.143 59.7256 275.453 54.7068 278.93C49.688 282.406 45.1996 287.967 46.0066 294.065C46.3909 296.997 47.9741 299.641 49.8033 301.951C57.6581 311.883 70.8468 317.087 83.3207 315.539C95.7946 313.991 107.216 305.887 113.295 294.734C114.832 291.942 116.077 288.885 118.498 286.855C123.348 282.803 130.465 284.444 136.752 284.249C150.732 283.814 163.429 271.689 164.651 257.58C165.174 251.552 164.159 244.537 168.44 240.306C171.891 236.884 177.286 236.915 182.005 235.865C190.675 233.944 196.985 227.597 200.943 219.851C202.757 216.288 202.572 212.306 205.262 209.351C208.129 206.1 213.332 207.647 215.892 202.654Z" fill="#3F3D56"/>
<path d="M216.122 273.439C215.484 274.582 214.17 275.111 212.948 275.57C200.297 280.283 186.986 285.082 173.643 283.098C173.144 280.975 172.652 278.844 172.16 276.721C171.448 273.641 170.731 270.561 170.008 267.481C169.67 266.011 169.324 264.525 169.047 263.032C168.571 260.674 168.418 258.261 168.594 255.861C168.675 254.991 168.83 254.13 169.055 253.287C169.45 251.753 170.111 250.302 171.007 249.001C171.161 248.791 171.322 248.581 171.491 248.379C172.251 247.452 173.174 246.674 174.212 246.085C176.479 244.825 179.592 244.288 180.507 241.846C180.861 240.569 180.826 239.214 180.407 237.957C179.638 234.846 178.247 231.922 177.386 228.842C176.295 224.953 177.94 225.194 181.652 224.253C188.339 222.549 195.332 221.328 202.196 222.697C201.873 226.127 201.558 229.643 202.411 232.987C203.264 236.331 205.547 239.505 208.829 240.43C209.313 240.57 209.828 240.656 210.366 240.773C211.078 240.888 211.755 241.171 212.341 241.597C212.745 241.935 213.067 242.364 213.279 242.849C213.613 243.67 213.833 244.534 213.932 245.416C215.136 253.577 216.004 261.777 216.537 270.016V270.328C216.695 271.383 216.551 272.463 216.122 273.439Z" fill="#FBBEBE"/>
<path d="M150.994 260.038C148.119 264.463 147.151 269.845 146.275 275.072L140.695 307.816C139.926 312.296 139.242 317.219 141.509 321.147C142.278 322.477 143.354 323.628 143.915 325.035C144.339 326.452 144.617 327.909 144.745 329.383C146.052 336.889 153.345 341.952 160.662 343.772C163.306 344.433 166.396 344.69 168.479 342.908C170.784 340.972 170.784 337.285 169.424 334.625C168.064 331.965 165.581 330.083 163.175 328.302L155.205 322.36L159.817 286.583C160.155 283.985 161.354 280.617 163.952 280.905C166.319 281.162 168.14 284.654 170.246 283.526C170.906 283.074 171.371 282.384 171.545 281.597C172.468 278.665 172.214 275.507 171.953 272.435L171 261.344C170.684 257.743 171.599 255.044 172.029 251.661C172.529 247.718 169.931 248.916 166.726 249.763C160.57 251.412 154.552 254.547 150.994 260.038Z" fill="#FBBEBE"/>
<path d="M250.101 313.812C249.515 314.809 248.648 315.606 247.611 316.099C241.388 319.649 234.07 320.691 227.12 319.016C225.519 318.539 223.892 318.155 222.248 317.865C219.619 317.538 216.945 318.067 214.293 317.865C208.913 317.452 204.186 314.054 200.459 310.087C198.214 307.754 196.178 303.935 198.268 301.43C198.852 300.826 199.578 300.381 200.377 300.136C201.177 299.891 202.024 299.855 202.841 300.03C204.469 300.397 206.038 300.989 207.506 301.788C212.65 304.201 218.153 305.736 223.792 306.33C227.635 306.735 232.523 306.074 233.853 302.379C234.499 300.583 234.045 298.592 233.592 296.733C232.352 291.641 231.112 286.547 229.872 281.45C229.787 281.005 229.631 280.577 229.411 280.182C229.348 280.075 229.273 279.976 229.188 279.886C228.698 279.473 228.105 279.204 227.474 279.109C224.607 278.393 221.74 277.234 219.688 275.095C218.343 273.577 217.272 271.832 216.522 269.939C216.307 269.464 216.107 268.982 215.899 268.5C214.324 264.782 212.664 260.971 211.38 257.067C210.484 254.428 209.823 251.713 209.405 248.955C209.067 246.567 208.882 245.47 210.173 244.413C210.52 244.148 210.887 243.914 211.272 243.713C211.864 243.394 212.533 243.075 213.24 242.771L213.924 242.484C216.026 241.633 218.187 240.936 220.388 240.399C225.722 239.147 231.417 241.76 235.075 245.89C238.733 250.02 240.632 255.426 241.846 260.831C243.061 266.237 243.683 271.774 245.205 277.094C245.797 279.179 246.535 281.232 247.042 283.316C247.586 285.796 247.974 288.308 248.202 290.837C248.925 297.282 249.645 303.727 250.362 310.172C250.627 311.386 250.536 312.651 250.101 313.812Z" fill="#FBBEBE"/>
<path d="M171.184 311.012C172.721 320.937 168.302 330.698 164.029 339.79C166.45 341.579 169.409 342.465 172.298 343.235C191.64 348.381 211.747 349.912 231.632 347.754C232.109 344.394 232.554 340.832 231.194 337.736C230.349 335.815 228.888 334.252 227.958 332.37C226.421 329.259 226.575 325.642 226.744 322.189L228.12 292.766C218.582 288.317 207.522 292.486 197.031 293.085C191.597 293.396 186.094 292.727 180.737 293.699C177.955 294.205 169.209 295.597 167.894 298.498C166.58 301.399 170.715 307.855 171.184 311.012Z" fill="#FBBEBE"/>
<path opacity="0.05" d="M171.184 311.012C172.721 320.937 168.302 330.698 164.029 339.79C166.45 341.579 169.409 342.465 172.298 343.235C191.64 348.381 211.747 349.912 231.632 347.754C232.109 344.394 232.554 340.832 231.194 337.736C230.349 335.815 228.888 334.252 227.958 332.37C226.421 329.259 226.575 325.642 226.744 322.189L228.12 292.766C218.582 288.317 207.522 292.486 197.031 293.085C191.597 293.396 186.094 292.727 180.737 293.699C177.955 294.205 169.209 295.597 167.894 298.498C166.58 301.399 170.715 307.855 171.184 311.012Z" fill="black"/>
<path d="M196.454 339.494C186.117 337.316 175.957 333.715 165.404 333.466C164.874 333.412 164.34 333.515 163.867 333.762C163.352 334.193 163.008 334.798 162.899 335.465C161.807 339.276 160.831 343.116 159.97 346.984C157.111 359.84 155.705 374.042 161.992 385.584C161.93 381.836 164.259 378.328 167.372 376.251C170.484 374.175 174.212 373.335 177.901 372.992C181.59 372.65 185.533 372.79 188.969 374.322C191.369 375.426 193.441 377.15 194.975 379.321C196.509 381.492 197.451 384.033 197.707 386.689L234.022 387.879C234.235 387.942 234.459 387.95 234.676 387.903C234.892 387.855 235.094 387.754 235.262 387.608C235.43 387.462 235.559 387.276 235.638 387.066C235.717 386.857 235.742 386.631 235.713 386.409C237.052 374.62 237.003 362.712 235.567 350.935C235.167 347.645 235.114 343.08 231.455 341.843C227.09 340.365 220.188 342.092 215.523 341.89C209.113 341.617 202.736 340.816 196.454 339.494Z" fill="#3F3D56"/>
<path d="M229.418 281.877L229.303 298.21L192.565 299.447C185.825 299.68 179.031 299.914 172.46 301.43C170.569 301.866 168.701 302.41 166.841 302.947C164.905 295.768 162.999 288.247 163.506 280.928C163.646 278.954 163.986 276.999 164.52 275.095C165.689 270.989 167.879 267.115 169.047 263.055C169.518 261.475 169.777 259.837 169.816 258.187C169.729 256.538 169.471 254.904 169.047 253.31C168.71 252.003 168.55 250.655 168.571 249.305L171.484 248.395C171.568 248.745 171.637 249.087 171.699 249.445C171.822 250.183 171.922 250.938 171.991 251.692C172.155 253.562 172.207 255.44 172.145 257.316C172.045 261.064 171.545 265.241 173.858 268.204C176.864 272.007 182.643 271.416 187.362 270.468L199.721 267.971C203.625 267.193 207.983 266.089 210.02 262.628C210.889 260.947 211.347 259.08 211.357 257.183V256.81C211.541 252.679 211.135 248.543 210.15 244.529C209.851 243.269 209.482 242.025 209.067 240.804H210.304C211.017 240.92 211.693 241.202 212.279 241.628C212.684 241.966 213.005 242.395 213.217 242.88L213.901 242.592C216.628 253.873 221.122 264.638 227.213 274.481C227.996 275.607 228.617 276.841 229.057 278.144C229.24 278.851 229.343 279.576 229.365 280.306C229.426 280.765 229.418 281.317 229.418 281.877Z" fill="#3F3D56"/>
<path d="M190.606 232.443C202.915 232.443 212.894 222.344 212.894 209.887C212.894 197.431 202.915 187.332 190.606 187.332C178.296 187.332 168.317 197.431 168.317 209.887C168.317 222.344 178.296 232.443 190.606 232.443Z" fill="#FBBEBE"/>
<path d="M150.994 260.038C148.119 264.463 147.151 269.845 146.275 275.072L140.695 307.816C139.926 312.296 139.242 317.219 141.509 321.147C142.278 322.477 143.354 323.628 143.915 325.036C144.339 326.452 144.617 327.909 144.745 329.383C146.052 336.889 153.345 341.952 160.662 343.772C163.306 344.433 166.396 344.69 168.479 342.909C170.784 340.972 170.784 337.285 169.424 334.625C168.064 331.965 165.581 330.083 163.175 328.302L155.205 322.36L159.817 286.583C160.124 284.008 154.552 254.547 150.994 260.038Z" fill="#FBBEBE"/>
<path d="M241.854 260.878C243.068 266.283 243.691 271.821 245.213 277.141C245.804 279.233 246.542 281.279 247.049 283.363C247.594 285.84 247.981 288.349 248.21 290.876L250.37 310.211C250.618 311.406 250.525 312.647 250.101 313.789C249.513 314.784 248.646 315.58 247.611 316.076C241.385 319.617 234.07 320.658 227.12 318.992C225.521 318.509 223.894 318.124 222.248 317.841C219.619 317.507 216.945 318.043 214.293 317.841C208.913 317.429 204.186 314.038 200.459 310.102C198.214 307.769 196.178 303.943 198.268 301.438C198.852 300.834 199.578 300.389 200.377 300.144C201.177 299.899 202.024 299.863 202.841 300.038C204.469 300.408 206.039 301.002 207.506 301.804C212.652 304.211 218.154 305.743 223.792 306.338C227.635 306.75 232.523 306.089 233.853 302.387C234.499 300.59 234.045 298.599 233.592 296.74L229.872 281.457C229.718 280.929 240.64 255.48 241.854 260.878Z" fill="#FBBEBE"/>
<path d="M176.81 216.833C175.818 213.232 174.427 208.729 177.217 206.286C178.22 205.503 179.428 205.035 180.691 204.941C186.955 204.163 193.434 207.896 199.429 205.905C201.341 205.273 203.032 204.094 204.296 202.511C205.561 200.928 206.346 199.008 206.557 196.984C206.767 194.959 206.394 192.916 205.482 191.102C204.571 189.287 203.16 187.778 201.42 186.757C198.799 185.201 195.671 184.898 192.65 184.626C184.695 183.887 176.403 183.202 168.963 186.181C161.523 189.16 155.251 196.829 156.789 204.77C157.503 208.558 159.817 211.816 162.169 214.834C163.975 217.128 171.222 228.056 174.135 227.901C178.239 227.667 177.456 219.174 176.81 216.833Z" fill="#3F3D56"/>
<path opacity="0.1" d="M201.42 186.757C200.975 186.497 200.513 186.271 200.036 186.08C201.386 187.319 202.39 188.895 202.949 190.651C203.507 192.406 203.601 194.279 203.219 196.082C202.838 197.886 201.995 199.556 200.776 200.927C199.556 202.297 198.003 203.319 196.27 203.891C190.275 205.882 183.796 202.149 177.532 202.926C176.269 203.021 175.061 203.489 174.058 204.272C171.268 206.714 172.66 211.217 173.651 214.818C174.297 217.152 175.081 225.653 170.992 225.886H170.923C172.191 227.138 173.336 227.955 174.151 227.908C178.239 227.675 177.455 219.182 176.81 216.841C175.818 213.24 174.427 208.736 177.217 206.294C178.22 205.511 179.428 205.043 180.691 204.949C186.955 204.171 193.434 207.904 199.429 205.913C201.341 205.281 203.032 204.102 204.296 202.519C205.561 200.936 206.346 199.016 206.556 196.992C206.767 194.967 206.394 192.924 205.482 191.109C204.571 189.295 203.16 187.786 201.42 186.765V186.757Z" fill="black"/>
<path d="M528.777 467.328H278.223V545.882H528.777V467.328Z" fill="#3F3D56"/>
<path d="M392.74 492.714V520.48L414.26 506.597L392.74 492.714Z" fill="white"/>
<path d="M200.597 26.5373L188.669 34.1905L195.909 20.8674C193.857 19.21 191.317 18.293 188.692 18.2619H188.5C187.671 18.2742 186.843 18.2117 186.025 18.0752L181.982 20.6652L183.719 17.4764C180.851 16.4667 178.375 14.56 176.648 12.032L169.409 16.6986L173.982 8.29097C169.747 3.14994 164.044 0 157.772 0C150.248 0 143.546 4.52659 139.219 11.5809C137.939 13.6991 136.126 15.4348 133.965 16.6102C131.805 17.7856 129.374 18.3583 126.922 18.2697H126.515C118.206 18.2697 111.474 27.7973 111.474 39.5571C111.474 51.3169 118.206 60.8445 126.515 60.8445C128.342 60.8359 130.141 60.3796 131.756 59.5145C134.583 58.1225 137.674 57.3694 140.817 57.3076C143.96 57.2458 147.078 57.8768 149.956 59.1568C152.391 60.259 155.028 60.8288 157.696 60.8288C160.363 60.8288 163 60.259 165.435 59.1568C168.292 57.9032 171.383 57.2863 174.497 57.3481C177.61 57.4098 180.674 58.1487 183.481 59.5145C185.08 60.3613 186.857 60.8068 188.661 60.8134C196.97 60.8134 203.702 51.278 203.702 39.526C203.759 35.0015 202.691 30.5351 200.597 26.5373Z" fill="#F2F2F2"/>
<path opacity="0.03" d="M178.109 57.6867C173.776 56.8552 169.297 57.348 165.243 59.1022C162.807 60.2021 160.17 60.7705 157.503 60.7705C154.836 60.7705 152.199 60.2021 149.764 59.1022C146.885 57.825 143.767 57.1962 140.624 57.2593C137.482 57.3224 134.39 58.076 131.564 59.4678C129.948 60.3295 128.149 60.7831 126.322 60.79C118.944 60.79 112.803 53.269 111.527 43.3447C112.998 42.2537 114.25 40.889 115.216 39.3237C119.544 32.2616 126.245 27.735 133.77 27.735C141.294 27.735 147.911 32.2071 152.215 39.1915C153.511 41.2921 155.319 43.0192 157.467 44.2059C159.614 45.3925 162.028 45.9987 164.474 45.9658H164.666C170.546 45.9658 175.634 50.7335 178.109 57.6867Z" fill="black"/>
<path d="M608.709 200.01L602.76 203.829L606.372 197.179C605.349 196.354 604.083 195.897 602.775 195.88H602.675C602.264 195.887 601.852 195.858 601.446 195.794L599.394 197.101L600.262 195.507C598.833 195.005 597.597 194.057 596.734 192.8L593.122 195.133L595.428 190.941C594.468 189.688 593.244 188.666 591.846 187.95C590.447 187.235 588.909 186.843 587.342 186.803C583.592 186.803 580.248 189.059 578.119 192.582C577.479 193.64 576.572 194.506 575.491 195.092C574.411 195.679 573.196 195.964 571.971 195.919H571.771C567.628 195.919 564.27 200.679 564.27 206.535C564.27 212.392 567.628 217.16 571.771 217.16C572.682 217.156 573.579 216.929 574.384 216.499C575.794 215.804 577.335 215.428 578.902 215.395C580.47 215.363 582.025 215.676 583.461 216.312C584.669 216.865 585.978 217.154 587.304 217.16C588.627 217.155 589.935 216.874 591.147 216.335C592.572 215.71 594.112 215.402 595.665 215.431C597.218 215.461 598.746 215.827 600.147 216.506C600.943 216.931 601.829 217.156 602.729 217.16C606.872 217.16 610.23 212.4 610.23 206.535C610.275 204.265 609.752 202.02 608.709 200.01Z" fill="#F2F2F2"/>
<path opacity="0.03" d="M597.464 215.55C595.301 215.129 593.063 215.376 591.039 216.257C589.83 216.803 588.52 217.085 587.196 217.085C585.872 217.085 584.563 216.803 583.353 216.257C581.917 215.622 580.362 215.309 578.796 215.34C577.229 215.371 575.687 215.745 574.277 216.436C573.472 216.87 572.575 217.099 571.663 217.105C567.982 217.105 564.923 213.348 564.285 208.402C565.019 207.859 565.643 207.177 566.122 206.395C568.282 202.872 571.625 200.616 575.345 200.616C579.065 200.616 582.4 202.849 584.568 206.325C585.214 207.382 586.12 208.252 587.198 208.847C588.276 209.443 589.488 209.745 590.716 209.724H590.809C593.691 209.701 596.235 212.081 597.464 215.55Z" fill="black"/>
<path d="M621.874 100.837L631.427 106.974L625.617 96.2949C627.262 94.9702 629.295 94.2369 631.397 94.2105H631.55C632.214 94.2205 632.878 94.1711 633.533 94.0628L636.777 96.1394L635.386 93.5883C637.679 92.7742 639.66 91.2504 641.05 89.2328L646.853 92.9505L643.187 86.2151C646.576 82.0929 651.149 79.573 656.175 79.573C662.209 79.573 667.573 83.1974 671.04 88.8517C672.065 90.5437 673.514 91.9309 675.241 92.8721C676.967 93.8134 678.909 94.2752 680.87 94.2105H681.192C687.848 94.2105 693.244 101.848 693.244 111.267C693.244 120.686 687.864 128.323 681.192 128.323C679.729 128.316 678.289 127.95 676.996 127.258C674.729 126.139 672.248 125.534 669.726 125.484C667.204 125.435 664.702 125.942 662.393 126.97C660.443 127.852 658.331 128.308 656.195 128.308C654.058 128.308 651.946 127.852 649.996 126.97C647.708 125.964 645.232 125.469 642.738 125.517C640.243 125.565 637.788 126.156 635.539 127.25C634.255 127.927 632.829 128.284 631.381 128.292C624.725 128.292 619.33 120.655 619.33 111.236C619.306 107.609 620.18 104.034 621.874 100.837Z" fill="#F2F2F2"/>
<path opacity="0.03" d="M639.882 125.796C643.36 125.125 646.957 125.52 650.211 126.931C652.162 127.813 654.274 128.269 656.41 128.269C658.546 128.269 660.658 127.813 662.608 126.931C664.918 125.906 667.42 125.401 669.942 125.453C672.464 125.504 674.944 126.109 677.211 127.227C678.505 127.917 679.945 128.279 681.408 128.284C687.318 128.284 692.237 122.257 693.267 114.285C692.081 113.415 691.076 112.318 690.308 111.057C686.842 105.41 681.469 101.778 675.444 101.778C669.418 101.778 664.107 105.364 660.641 110.956C659.605 112.642 658.157 114.029 656.436 114.983C654.715 115.937 652.78 116.425 650.819 116.4H650.665C645.946 116.408 641.865 120.227 639.882 125.796Z" fill="black"/>
</svg>
