<svg width="82" height="78" viewBox="0 0 82 78" fill="none" xmlns="http://www.w3.org/2000/svg">
<ellipse cx="40.9936" cy="39.0698" rx="40.9601" ry="38.6853" fill="#DED9FF"/>
<path d="M51.875 23.875H29.125C27.3301 23.875 25.875 25.3301 25.875 27.125V49.875C25.875 51.6699 27.3301 53.125 29.125 53.125H51.875C53.6699 53.125 55.125 51.6699 55.125 49.875V27.125C55.125 25.3301 53.6699 23.875 51.875 23.875Z" fill="white" stroke="#2E1563" stroke-width="2" stroke-linecap="round" stroke-linejoin="round"/>
<path d="M34.8125 35.25C36.1587 35.25 37.25 34.1587 37.25 32.8125C37.25 31.4663 36.1587 30.375 34.8125 30.375C33.4663 30.375 32.375 31.4663 32.375 32.8125C32.375 34.1587 33.4663 35.25 34.8125 35.25Z" stroke="#2E1563" stroke-width="2" stroke-linecap="round" stroke-linejoin="round"/>
<path d="M55.125 43.375L47 35.25L29.125 53.125" stroke="#2E1563" stroke-width="2" stroke-linecap="round" stroke-linejoin="round"/>
</svg>
