<svg width="29" height="29" viewBox="0 0 29 29" fill="none" xmlns="http://www.w3.org/2000/svg">
<path d="M18.7292 9.0625L22.9584 4.83333M25.375 2.41666L22.9584 4.83333L25.375 2.41666ZM13.7629 14.0287C14.3869 14.6444 14.8828 15.3773 15.2223 16.1854C15.5618 16.9934 15.7381 17.8607 15.741 18.7372C15.744 19.6137 15.5735 20.4821 15.2394 21.2924C14.9054 22.1027 14.4143 22.839 13.7945 23.4588C13.1748 24.0785 12.4385 24.5696 11.6282 24.9036C10.8179 25.2377 9.94944 25.4082 9.07296 25.4052C8.19647 25.4023 7.32922 25.226 6.52115 24.8865C5.71307 24.5471 4.98013 24.0511 4.36453 23.4272C3.15393 22.1737 2.48407 20.495 2.49921 18.7525C2.51436 17.01 3.21329 15.3431 4.44548 14.1109C5.67767 12.8787 7.34453 12.1798 9.08705 12.1646C10.8296 12.1495 12.5083 12.8194 13.7617 14.03L13.7629 14.0287ZM13.7629 14.0287L18.7292 9.0625L13.7629 14.0287ZM18.7292 9.0625L22.3542 12.6875L26.5834 8.45833L22.9584 4.83333L18.7292 9.0625Z" stroke="black" stroke-width="2" stroke-linecap="round" stroke-linejoin="round"/>
</svg>
