<svg width="1920" height="1080" viewBox="0 0 1920 1080" fill="none" xmlns="http://www.w3.org/2000/svg">
<g clip-path="url(#clip0_119_48)">
<rect width="1920" height="1080" fill="white"/>
<path d="M171.434 818.994C225.219 830.337 251.363 876.338 288.792 909.263C327.742 943.525 385.486 969.442 394.48 1015.2C403.648 1061.84 369.77 1106.73 335.122 1144.95C302.591 1180.82 256.778 1205.78 205.856 1223.23C154.437 1240.84 99.4484 1252.26 44.3517 1244.55C-13.1389 1236.52 -73.1694 1218.27 -105.949 1179.63C-137.629 1142.28 -122.302 1093.31 -122.237 1048.18C-122.179 1007.31 -130.111 965.177 -105.591 929.334C-80.4117 892.525 -34.3176 869.723 12.6275 851.025C62.7254 831.071 117.321 807.583 171.434 818.994Z" fill="url(#paint0_linear_119_48)" fill-opacity="0.2"/>
<path fill-rule="evenodd" clip-rule="evenodd" d="M1938.35 691.488L1895.89 743.435C1853.42 795.382 1675.26 842.884 1581.53 918.546C1485.6 987.15 1490.11 1022.32 1359 978C1230.08 940.734 1049.51 890.99 931.59 889.014C813.67 887.038 724.916 992.122 682.449 1044.07L639.982 1096.02L752.133 1455.97L805.595 1439.32C859.057 1422.66 969.801 1388.16 1076.73 1354.84C1183.65 1321.53 1294.39 1287.02 1401.32 1253.71C1508.24 1220.4 1618.99 1185.89 1725.91 1152.58C1832.84 1119.26 1943.58 1084.76 1997.04 1068.1L2050.5 1051.45L1938.35 691.488Z" fill="url(#paint1_linear_119_48)" fill-opacity="0.2"/>
<path d="M74.5048 894.175C132.823 906.201 161.171 954.978 201.755 989.889C243.988 1026.22 306.599 1053.7 316.352 1102.21C326.293 1151.67 289.559 1199.27 251.99 1239.79C216.718 1277.83 167.042 1304.3 111.828 1322.79C56.0759 1341.47 -3.54827 1353.57 -63.2892 1345.41C-125.626 1336.88 -190.716 1317.54 -226.259 1276.56C-260.609 1236.97 -243.99 1185.04 -243.92 1137.18C-243.857 1093.86 -252.457 1049.18 -225.871 1011.17C-198.569 972.141 -148.59 947.964 -97.6875 928.138C-43.3667 906.98 15.8306 882.075 74.5048 894.175Z" fill="url(#paint2_linear_119_48)" fill-opacity="0.2"/>
</g>
<defs>
<linearGradient id="paint0_linear_119_48" x1="135" y1="816" x2="195" y2="1247" gradientUnits="userSpaceOnUse">
<stop stop-color="#EFDFFF"/>
<stop offset="1" stop-color="#1FDDFF"/>
</linearGradient>
<linearGradient id="paint1_linear_119_48" x1="657.323" y1="1072.5" x2="1944.72" y2="854.52" gradientUnits="userSpaceOnUse">
<stop offset="0.0001" stop-color="#210FEE"/>
<stop offset="1" stop-color="#92ADF2"/>
</linearGradient>
<linearGradient id="paint2_linear_119_48" x1="35" y1="891" x2="227.805" y2="1086.68" gradientUnits="userSpaceOnUse">
<stop stop-color="#827CE0"/>
<stop offset="1" stop-color="#FDFDFF"/>
</linearGradient>
<clipPath id="clip0_119_48">
<rect width="1920" height="1080" fill="white"/>
</clipPath>
</defs>
</svg>
