<svg width="667" height="452" viewBox="0 0 667 452" fill="none" xmlns="http://www.w3.org/2000/svg">
<g clip-path="url(#clip0_163_224)">
<path opacity="0.3" d="M388.786 90.1493C349.546 88.729 312.173 75.8294 276.511 61.7442C240.848 47.6589 205.476 31.9867 167.176 24.5087C142.542 19.6984 114.367 19.0191 94.5227 32.4683C75.418 45.4359 69.2459 67.7586 65.9294 88.4944C63.4314 104.093 61.9642 120.506 68.8033 135.11C73.5567 145.249 81.9843 153.771 87.8169 163.484C108.11 197.274 93.7648 238.943 71.7802 271.936C61.4731 287.417 49.4986 302.194 41.5378 318.656C33.5771 335.119 29.8968 354.008 36.8632 370.817C43.763 387.49 60.212 399.988 78.0312 408.787C114.221 426.658 156.851 431.777 198.449 434.673C290.504 441.089 383.044 438.31 475.342 435.531C509.501 434.5 543.805 433.456 577.407 428.078C596.069 425.089 615.331 420.347 628.882 408.905C646.077 394.375 650.339 369.767 638.813 351.551C619.484 320.991 566.057 313.401 552.53 280.6C545.097 262.55 552.73 242.438 563.541 225.697C586.726 189.783 625.584 158.272 627.627 117.214C629.033 89.0193 610.353 60.7808 581.469 47.4366C551.196 33.4502 509.21 35.21 486.886 58.3602C463.858 82.1712 423.436 91.3411 388.786 90.1493Z" fill="url(#paint0_linear_163_224)"/>
<path d="M103.835 452C128.35 452 148.223 448.107 148.223 443.306C148.223 438.504 128.35 434.611 103.835 434.611C79.321 434.611 59.448 438.504 59.448 443.306C59.448 448.107 79.321 452 103.835 452Z" fill="#6C63FF"/>
<path d="M103.09 446.504C105.943 446.504 108.255 443.419 108.255 439.613C108.255 435.807 105.943 432.722 103.09 432.722C100.237 432.722 97.924 435.807 97.924 439.613C97.924 443.419 100.237 446.504 103.09 446.504Z" fill="#3F3D56"/>
<path d="M103.09 438.081C105.943 438.081 108.255 434.996 108.255 431.19C108.255 427.384 105.943 424.299 103.09 424.299C100.237 424.299 97.924 427.384 97.924 431.19C97.924 434.996 100.237 438.081 103.09 438.081Z" fill="#3F3D56"/>
<path d="M103.09 429.659C105.943 429.659 108.255 426.573 108.255 422.767C108.255 418.961 105.943 415.876 103.09 415.876C100.237 415.876 97.924 418.961 97.924 422.767C97.924 426.573 100.237 429.659 103.09 429.659Z" fill="#3F3D56"/>
<path d="M103.09 421.242C105.943 421.242 108.255 418.157 108.255 414.351C108.255 410.545 105.943 407.459 103.09 407.459C100.237 407.459 97.924 410.545 97.924 414.351C97.924 418.157 100.237 421.242 103.09 421.242Z" fill="#3F3D56"/>
<path d="M103.09 412.819C105.943 412.819 108.255 409.734 108.255 405.928C108.255 402.122 105.943 399.037 103.09 399.037C100.237 399.037 97.924 402.122 97.924 405.928C97.924 409.734 100.237 412.819 103.09 412.819Z" fill="#3F3D56"/>
<path d="M103.09 404.397C105.943 404.397 108.255 401.311 108.255 397.505C108.255 393.699 105.943 390.614 103.09 390.614C100.237 390.614 97.924 393.699 97.924 397.505C97.924 401.311 100.237 404.397 103.09 404.397Z" fill="#3F3D56"/>
<path d="M103.09 395.974C105.943 395.974 108.255 392.889 108.255 389.083C108.255 385.277 105.943 382.191 103.09 382.191C100.237 382.191 97.924 385.277 97.924 389.083C97.924 392.889 100.237 395.974 103.09 395.974Z" fill="#3F3D56"/>
<path d="M122.437 331.451C123.145 330.537 123.789 329.573 124.365 328.567L110.784 326.295L125.468 326.406C126.878 323.284 127.647 319.903 127.729 316.468C127.81 313.033 127.202 309.617 125.941 306.43L106.242 316.841L124.432 303.256C122.728 300.263 120.437 297.659 117.703 295.607C114.969 293.554 111.849 292.097 108.537 291.325C105.226 290.553 101.795 290.484 98.4559 291.121C95.1172 291.759 91.943 293.089 89.1308 295.029C86.3186 296.97 83.9286 299.479 82.1095 302.4C80.2905 305.322 79.0812 308.594 78.557 312.012C78.0328 315.43 78.2049 318.921 79.0626 322.269C79.9203 325.616 81.4452 328.748 83.5425 331.47C82.4424 332.896 81.4952 334.438 80.7171 336.07L98.3484 345.394L79.553 338.972C78.2308 342.945 77.9032 347.191 78.5998 351.325C79.2965 355.459 80.9954 359.351 83.5425 362.647C80.6699 366.366 78.8829 370.833 78.3856 375.538C77.8884 380.242 78.701 384.994 80.7306 389.251C82.7603 393.507 85.9249 397.096 89.8628 399.607C93.8007 402.117 98.3529 403.449 102.999 403.449C107.645 403.449 112.197 402.117 116.135 399.607C120.073 397.096 123.237 393.507 125.267 389.251C127.297 384.994 128.109 380.242 127.612 375.538C127.115 370.833 125.328 366.366 122.455 362.647C125.888 358.203 127.754 352.713 127.754 347.058C127.754 341.404 125.888 335.914 122.455 331.47L122.437 331.451Z" fill="#6C63FF"/>
<path opacity="0.1" d="M78.2495 347.031C78.2421 352.685 80.1093 358.177 83.5486 362.616C80.676 366.335 78.8889 370.802 78.3917 375.507C77.8944 380.211 78.7071 384.964 80.7367 389.22C82.7663 393.476 85.931 397.065 89.8689 399.576C93.8068 402.087 98.3589 403.418 103.005 403.418C107.651 403.418 112.203 402.087 116.141 399.576C120.079 397.065 123.243 393.476 125.273 389.22C127.303 384.964 128.115 380.211 127.618 375.507C127.121 370.802 125.334 366.335 122.461 362.616C125.759 358.337 78.2495 344.209 78.2495 347.031Z" fill="black"/>
<path d="M318.885 338.386C319.261 343.326 321.128 348.439 325.057 351.353C328.986 354.268 335.237 354.212 338.238 350.297C339.246 348.827 339.987 347.186 340.427 345.45C342.955 337.311 344.75 328.407 341.979 320.348C335.728 319.935 328.483 316.94 323.79 322.201C320.001 326.486 318.449 332.674 318.885 338.386Z" fill="#3F3D56"/>
<path d="M347.903 288.596C347.072 295.778 345.659 302.929 345.805 310.16C345.859 312.951 346.151 315.717 346.157 318.521C346.167 325.8 344.284 332.952 340.7 339.25C340.322 339.991 339.817 340.656 339.208 341.214C337.771 342.399 335.607 342.301 333.994 341.393C332.418 340.395 331.138 338.98 330.29 337.299C325.773 329.419 325.645 319.842 323.857 310.907C322.487 304.071 320.086 297.445 319.219 290.529C318.655 286.077 318.74 281.538 317.842 277.142C317.569 275.814 316.805 273.819 316.302 271.862C315.841 270.114 315.587 268.398 316.06 267.218C317.024 264.804 320.183 265.743 322.238 265.891C329.476 266.437 336.745 266.419 343.98 265.835C344.695 265.78 345.508 265.749 346.011 266.267C346.231 266.529 346.396 266.834 346.496 267.163C347.072 268.768 347.512 270.421 347.812 272.103C348.812 277.481 348.533 283.119 347.903 288.596Z" fill="#FABDBD"/>
<g opacity="0.1">
<path opacity="0.1" d="M345.114 265.835C344.741 265.795 344.365 265.795 343.992 265.835C340.524 266.119 337.05 266.261 333.582 266.28C337.426 266.288 341.27 266.14 345.114 265.835Z" fill="black"/>
<path opacity="0.1" d="M335.219 341.393C333.643 340.395 332.363 338.98 331.514 337.299C326.997 329.419 326.87 319.842 325.082 310.907C323.711 304.071 321.31 297.445 320.443 290.529C319.879 286.077 319.964 281.538 319.067 277.142C318.794 275.814 318.03 273.819 317.527 271.862C317.066 270.114 316.812 268.398 317.284 267.218C317.485 266.735 317.824 266.324 318.256 266.037C318.688 265.751 319.194 265.603 319.71 265.613C318.176 265.508 316.678 265.693 316.072 267.218C315.599 268.398 315.854 270.114 316.314 271.862C316.818 273.819 317.582 275.814 317.854 277.142C318.752 281.538 318.667 286.077 319.231 290.529C320.098 297.451 322.499 304.077 323.869 310.907C325.658 319.842 325.785 329.432 330.302 337.299C331.15 338.98 332.431 340.395 334.006 341.393C334.974 341.938 336.083 342.167 337.183 342.047C336.494 341.955 335.828 341.733 335.219 341.393V341.393Z" fill="black"/>
</g>
<path d="M370.827 326.468C367.189 333.878 367.796 344.375 367.796 344.375C368.402 369.076 358.701 420.946 358.701 420.946H350.213C350.213 420.946 349 363.518 350.213 358.578C351.425 353.638 349.606 336.348 347.788 312.265C346.435 294.358 350.116 278.13 352.092 271.01C352.771 268.54 353.244 267.187 353.244 267.187C353.244 267.187 367.189 246.192 375.071 256.072C376.89 258.37 377.854 263.007 378.188 268.861C379.267 288.176 373.616 320.781 370.827 326.468Z" fill="#FABDBD"/>
<path opacity="0.1" d="M378.188 268.861C377.854 263.007 376.902 258.363 375.071 256.072C373.313 253.874 371.251 253.207 369.117 253.497C370.771 253.777 372.254 254.7 373.252 256.072C375.071 258.37 376.035 263.007 376.369 268.861C377.448 288.176 371.797 320.781 369.008 326.468C365.37 333.878 365.977 344.375 365.977 344.375C366.583 369.076 356.882 420.946 356.882 420.946H358.701C358.701 420.946 368.402 369.076 367.796 344.375C367.796 344.375 367.189 333.878 370.827 326.468C373.616 320.781 379.267 288.176 378.188 268.861Z" fill="black"/>
<path d="M345.799 418.692C345.121 419.233 344.536 419.884 344.065 420.618C342.979 422.706 344.52 425.2 346.169 426.861C347.818 428.523 349.806 430.301 349.806 432.666C349.806 434.568 348.394 436.198 346.811 437.211C345.963 437.754 344.895 438.446 345.071 439.471C345.133 439.73 345.242 439.975 345.393 440.193C346.751 442.311 349.158 443.553 351.595 444.022C354.032 444.491 356.549 444.287 359.028 444.084C359.4 444.097 359.763 443.969 360.047 443.726C360.227 443.479 360.322 443.18 360.32 442.873C360.441 441.564 360.362 440.181 360.926 439.002C361.714 437.39 363.527 436.569 364.564 435.124C366.019 433.148 365.819 430.4 365.267 427.998C364.055 422.767 361.357 416.802 357.306 413.178C352.614 409.016 348.933 415.685 345.799 418.692Z" fill="#3F3D56"/>
<path d="M364.17 107.439C367.553 102.289 366.674 95.0893 363.218 89.964C359.762 84.8388 354.208 81.6154 348.479 79.5344C340.754 76.7309 332.236 75.7738 324.299 77.8795C317.982 79.5529 312.307 83.0542 306.353 85.7588C295.819 90.5454 284.366 92.8665 272.836 92.5514C260.037 92.1871 246.013 88.8464 235.276 95.9723C215.62 108.995 224.362 144.44 205.767 158.958C200.753 162.873 194.441 164.583 188.863 167.603C183.285 170.622 177.998 175.877 178.132 182.312C178.192 185.399 179.526 188.345 181.163 190.957C188.136 202.214 201.171 209.179 214.225 209.05C227.279 208.92 240.017 201.849 247.541 190.969C249.427 188.246 251.088 185.214 253.823 183.398C259.279 179.755 266.47 182.305 272.982 182.849C287.479 184.053 301.981 172.969 304.867 158.427C306.08 152.221 305.868 144.805 310.773 140.908C314.732 137.765 320.304 138.438 325.324 137.901C334.503 136.931 341.749 131.108 346.733 123.501C349.018 120.012 349.285 115.844 352.401 113.096C355.76 110.076 360.956 112.305 364.17 107.439Z" fill="#3F3D56"/>
<g opacity="0.1">
<path opacity="0.1" d="M260.71 93.7432C266.027 93.8917 271.344 93.4779 276.577 92.5082C275.134 92.5514 273.679 92.5514 272.23 92.5082C262.184 92.2241 251.385 90.1122 242.012 92.6564C248.196 92.7181 254.593 93.5703 260.71 93.7432Z" fill="black"/>
<path opacity="0.1" d="M241.684 184.627C238.95 186.443 237.289 189.475 235.403 192.198C229.607 200.483 221.137 206.431 211.472 209C212.182 209.031 212.891 209.05 213.607 209.043C226.672 208.914 239.399 201.843 246.923 190.963C248.809 188.24 250.47 185.208 253.204 183.392L253.677 183.096C249.397 182.497 245.195 182.287 241.684 184.627Z" fill="black"/>
<path opacity="0.1" d="M362.606 89.9455C359.156 84.8449 353.596 81.5969 347.866 79.5159C340.142 76.7124 331.623 75.7553 323.687 77.861C323.505 77.9042 323.329 77.9598 323.153 78.0092C327.659 78.2651 332.103 79.1887 336.347 80.7509C342.076 82.8319 347.636 86.0799 351.086 91.1805C354.536 96.2811 355.421 103.531 352.038 108.656C348.824 113.54 343.628 111.311 340.227 114.318C337.11 117.066 336.844 121.234 334.558 124.723C330.271 131.25 324.305 136.456 316.878 138.432C319.431 138.123 322.123 138.16 324.669 137.888C333.849 136.919 341.094 131.096 346.078 123.488C348.363 119.999 348.63 115.831 351.747 113.083C355.148 110.076 360.344 112.305 363.557 107.421C366.947 102.271 366.067 95.0461 362.606 89.9455Z" fill="black"/>
<path opacity="0.1" d="M313.155 139.123C308.166 139.655 302.594 138.988 298.604 142.131C293.699 146.027 293.936 153.443 292.699 159.649C290.571 170.499 281.925 179.446 271.66 182.775L272.382 182.843C286.878 184.047 301.381 172.963 304.267 158.42C305.48 152.215 305.267 144.798 310.172 140.902C311.299 140.044 312.577 139.415 313.938 139.049C313.665 139.056 313.416 139.099 313.155 139.123Z" fill="black"/>
</g>
<path d="M459.65 85.3328C459.65 85.3328 445.099 114.973 440.249 126.088C435.398 137.203 391.138 153.876 385.075 154.493C383.449 154.72 381.934 155.463 380.746 156.617C377.321 159.705 375.374 164.991 375.374 164.991C375.374 164.991 377.8 181.663 374.768 209.451C374.707 209.988 374.653 210.525 374.604 211.044C371.961 237.486 377.496 243.722 377.496 243.722C377.496 243.722 318.685 266.57 320.504 236.93C321.074 227.599 320.989 220.782 320.425 215.083C319.808 209.248 318.643 203.487 316.945 197.879C315.508 192.76 313.792 187.147 312.016 179.502C311.161 175.688 310.034 171.942 308.645 168.294C308.602 168.183 308.56 168.072 308.523 167.967C305.492 160.304 302.46 157.828 300.726 157.025C299.089 156.3 297.529 155.406 296.07 154.357C290.468 150.239 278.445 141.007 267.737 130.102C253.186 115.282 238.635 80.084 238.635 80.084C238.635 80.084 234.391 59.7064 244.092 43.0338C253.792 26.3612 249.548 75.7615 249.548 75.7615C249.548 75.7615 267.131 99.8441 271.375 110.959C273.558 116.677 277.026 119.604 279.863 121.123C284.551 123.609 289.04 126.466 293.287 129.67C296.157 131.879 299.174 133.884 302.315 135.672C309.093 139.377 317.212 143.557 323.978 144.656C325.034 144.834 326.103 144.927 327.173 144.934C327.681 144.951 328.186 144.848 328.649 144.634C329.111 144.42 329.519 144.1 329.841 143.699C331.66 141.519 331.617 136.826 331.199 132.967C330.976 130.968 330.644 128.982 330.205 127.02C330.205 127.02 349.91 114.362 349.303 129.799C349.209 131.505 349.365 133.216 349.764 134.875C350.087 136.398 350.801 137.807 351.833 138.957C352.865 140.107 354.179 140.957 355.639 141.421C358.005 142.127 360.509 142.21 362.915 141.661C363.665 141.531 364.39 141.279 365.061 140.914C366.88 139.679 385.069 134.122 390.526 133.504C395.983 132.887 423.266 119.302 423.266 119.302L452.975 77.3114C452.975 77.3114 452.369 52.6113 464.495 42.7312C476.621 32.8512 459.65 85.3328 459.65 85.3328Z" fill="#FABDBD"/>
<g opacity="0.1">
<path opacity="0.1" d="M374.604 207.339C374.075 212.301 373.842 217.292 373.907 222.283C373.968 219.022 374.18 215.299 374.604 211.044C374.653 210.525 374.707 209.988 374.768 209.451C375.829 199.941 376.335 190.376 376.284 180.805C376.19 189.139 375.684 197.463 374.768 205.746C374.732 206.283 374.653 206.82 374.604 207.339Z" fill="black"/>
<path opacity="0.1" d="M330.835 126.625C330.429 126.866 330.229 127.014 330.229 127.014C330.818 129.656 331.207 132.34 331.393 135.042C331.515 132.224 331.328 129.401 330.835 126.625V126.625Z" fill="black"/>
<path opacity="0.1" d="M249.833 72.4084C250.13 68.0859 250.573 60.3362 250.488 53.4449C250.385 62.6581 249.579 72.0565 249.579 72.0565L249.833 72.4084Z" fill="black"/>
<path opacity="0.1" d="M320.546 236.207C320.546 236.448 320.546 236.689 320.504 236.93C318.685 266.57 377.496 243.722 377.496 243.722C376.809 242.776 376.29 241.714 375.962 240.585C367.104 243.796 322.59 258.728 320.546 236.207Z" fill="black"/>
<path opacity="0.1" d="M459.651 81.6277C459.651 81.6277 445.099 111.268 440.249 122.383C435.398 133.498 391.138 150.171 385.075 150.788C383.449 151.015 381.934 151.758 380.746 152.912C377.321 156 375.374 161.286 375.374 161.286C375.374 161.286 375.52 162.292 375.696 164.206C376.375 162.619 378.121 158.976 380.746 156.617C381.934 155.463 383.449 154.72 385.075 154.493C391.138 153.876 435.398 137.203 440.249 126.088C445.099 114.973 459.651 85.3328 459.651 85.3328C459.651 85.3328 469.903 53.624 468.775 44.1391C467.842 56.2916 459.651 81.6277 459.651 81.6277Z" fill="black"/>
<path opacity="0.1" d="M320.425 211.378C319.808 205.543 318.643 199.782 316.945 194.174C315.508 189.055 313.792 183.442 312.016 175.797C311.161 171.983 310.034 168.237 308.645 164.589C308.602 164.478 308.56 164.367 308.523 164.262C305.492 156.599 302.46 154.123 300.726 153.32C299.089 152.595 297.529 151.701 296.07 150.652C290.468 146.534 278.445 137.302 267.737 126.397C253.186 111.577 238.635 76.379 238.635 76.379C238.097 73.4076 237.797 70.3966 237.737 67.3758C237.589 71.6323 237.89 75.8928 238.635 80.084C238.635 80.084 253.186 115.282 267.737 130.102C278.445 141.007 290.468 150.239 296.07 154.357C297.54 155.408 299.113 156.302 300.763 157.025C302.491 157.828 305.516 160.304 308.56 167.967C308.596 168.072 308.639 168.183 308.681 168.294C310.064 171.942 311.185 175.688 312.034 179.502C313.81 187.147 315.526 192.76 316.963 197.879C318.661 203.487 319.826 209.248 320.443 215.083C320.698 217.664 320.85 220.473 320.892 223.635C320.965 219.543 320.81 215.451 320.425 211.378Z" fill="black"/>
</g>
<path d="M380.473 184.553C379.548 186.112 378.737 187.738 378.048 189.419C377.133 192.013 377.127 194.835 376.957 197.583C376.715 201.439 376.139 205.266 375.235 209.019C375.089 209.71 374.886 210.387 374.629 211.044C374.447 211.486 374.209 211.902 373.919 212.279C373.596 212.682 373.216 213.033 372.791 213.323C372.141 213.765 371.453 214.147 370.736 214.465C362.296 218.479 353.093 222.023 343.883 220.64C339.99 219.947 336.222 218.656 332.709 216.812C329.374 215.163 325.603 213.205 322.147 214.576C321.617 214.85 321.045 215.032 320.455 215.113C320.341 215.115 320.228 215.105 320.116 215.083C318.976 214.86 318.976 210.945 318.715 209.791C317.721 205.357 317.569 201.763 316.975 197.91C316.659 195.779 316.171 193.678 315.514 191.63C313.089 184.158 312.355 176.192 312.355 168.362C312.355 167.973 309.627 168.362 308.717 168.325C308.487 168.325 308.36 168.288 308.414 168.208C308.467 168.131 308.528 168.061 308.596 167.998C308.914 167.735 309.284 167.548 309.681 167.448L310.397 167.232C314.144 166.152 318.279 165.701 321.08 163.015C323.99 160.242 324.718 155.815 324.59 151.764C324.554 150.461 323.929 147.299 324.033 144.675C325.089 144.853 326.157 144.945 327.228 144.953C327.736 144.969 328.241 144.866 328.703 144.652C329.166 144.438 329.574 144.118 329.895 143.718C330.907 145.712 331.782 147.775 332.515 149.893C333.545 152.474 334.334 155.191 335.843 157.525C338.269 161.329 342.743 163.83 347.193 163.447C351.644 163.064 355.785 159.581 356.579 155.111C357.276 151.189 355.657 145.545 355.694 141.47C358.06 142.177 360.563 142.26 362.969 141.711C363.072 141.962 363.159 142.22 363.23 142.483C364.594 147.25 366.413 152.721 370.991 154.413C373.949 155.5 377.448 154.685 380.182 156.265C380.392 156.388 380.595 156.525 380.789 156.673C381.42 157.151 381.964 157.738 382.395 158.408C383.519 160.297 384.186 162.43 384.342 164.633C385.042 171.518 383.694 178.458 380.473 184.553V184.553Z" fill="#6C63FF"/>
<path opacity="0.1" d="M349.764 134.869C346.74 136.056 343.483 136.502 340.258 136.171C337.033 135.839 333.93 134.74 331.199 132.961C330.976 130.961 330.644 128.976 330.205 127.014C330.205 127.014 349.91 114.355 349.303 129.793C349.209 131.499 349.365 133.209 349.764 134.869V134.869Z" fill="black"/>
<path d="M342.325 135.042C353.71 135.042 362.939 125.642 362.939 114.047C362.939 102.451 353.71 93.0516 342.325 93.0516C330.94 93.0516 321.71 102.451 321.71 114.047C321.71 125.642 330.94 135.042 342.325 135.042Z" fill="#FABDBD"/>
<path d="M306.256 166.226C306.256 166.226 346.272 140.291 470.564 168.078C594.856 195.866 667.006 173.636 667.006 173.636V202.658C667.006 202.658 527.556 218.096 474.202 202.658C420.847 187.221 344.895 178.316 318.297 202.22L306.256 166.226Z" fill="#F86D70"/>
<path opacity="0.1" d="M306.256 166.226C306.256 166.226 346.272 140.291 470.564 168.078C594.856 195.866 667.006 173.636 667.006 173.636V202.658C667.006 202.658 527.556 218.096 474.202 202.658C420.847 187.221 344.895 178.316 318.297 202.22L306.256 166.226Z" fill="black"/>
<path d="M307.468 167.461C307.468 167.461 346.272 141.526 470.564 169.313C594.856 197.101 665.794 174.871 665.794 174.871L666.4 201.423C666.4 201.423 528.163 216.861 474.808 201.423C421.453 185.986 346.108 175.229 319.51 199.132L307.468 167.461Z" fill="#F86D70"/>
<path d="M292.881 207.351C292.881 207.351 252.865 233.287 128.573 205.499C4.2805 177.711 10.3435 199.941 10.3435 199.941V170.919C10.3435 170.919 71.5801 155.481 124.935 170.919C178.289 186.356 254.241 195.261 280.84 171.357L292.881 207.351Z" fill="#F86D70"/>
<path opacity="0.1" d="M292.881 207.351C292.881 207.351 252.865 233.287 128.573 205.499C4.2805 177.711 10.3435 199.941 10.3435 199.941V170.919C10.3435 170.919 71.5801 155.481 124.935 170.919C178.289 186.356 254.241 195.261 280.84 171.357L292.881 207.351Z" fill="black"/>
<path d="M291.668 206.116C291.668 206.116 252.865 232.052 128.573 204.264C4.2805 176.476 11.5561 198.706 11.5561 198.706L10.9498 172.154C10.9498 172.154 70.9738 156.716 124.328 172.154C177.683 187.591 253.028 198.348 279.627 174.445L291.668 206.116Z" fill="#F86D70"/>
<path d="M324.596 117.523C323.99 113.67 323.056 108.816 326.221 106.612C327.35 105.915 328.655 105.571 329.974 105.624C336.529 105.556 342.792 110.206 349.218 108.847C351.264 108.411 353.142 107.382 354.626 105.884C356.111 104.386 357.14 102.484 357.588 100.405C358.036 98.3262 357.885 96.1597 357.154 94.1661C356.422 92.1726 355.14 90.4368 353.463 89.1675C350.934 87.2532 347.739 86.5616 344.647 85.9132C336.516 84.2089 328.028 82.5108 320.001 84.6782C311.973 86.8457 304.637 94.1754 305.28 102.586C305.583 106.612 307.596 110.268 309.7 113.701C311.3 116.307 317.533 128.521 320.559 128.706C324.827 128.959 325.015 120.043 324.596 117.523Z" fill="#3F3D56"/>
<path d="M375.677 233.225C375.677 233.225 333.843 243.722 319.898 233.225C319.898 233.225 313.835 257.307 315.653 269.657C315.653 269.657 345.362 271.51 348.394 273.363C348.394 273.363 349 268.422 352.032 270.893C352.032 270.893 362.339 258.542 381.134 269.657C381.134 269.657 384.772 240.635 375.677 233.225Z" fill="#6C63FF"/>
<path opacity="0.1" d="M353.475 89.1675C353.043 88.8491 352.592 88.5603 352.123 88.303C353.374 89.7516 354.23 91.5092 354.605 93.4003C354.98 95.2914 354.861 97.2496 354.26 99.0793C353.659 100.909 352.597 102.546 351.181 103.827C349.764 105.107 348.042 105.987 346.187 106.377C339.76 107.736 333.497 103.086 326.943 103.154C325.624 103.101 324.319 103.445 323.19 104.142C320.025 106.346 320.953 111.2 321.559 115.053C321.959 117.573 321.795 126.489 317.539 126.249H317.466C318.636 127.7 319.728 128.681 320.571 128.719C324.815 128.959 324.991 120.073 324.59 117.523C323.984 113.67 323.056 108.816 326.221 106.612C327.35 105.915 328.655 105.571 329.974 105.624C336.528 105.556 342.792 110.206 349.218 108.847C351.264 108.411 353.142 107.382 354.626 105.884C356.111 104.386 357.14 102.484 357.588 100.405C358.036 98.3261 357.885 96.1597 357.154 94.1661C356.422 92.1726 355.14 90.4368 353.463 89.1675H353.475Z" fill="black"/>
<g opacity="0.1">
<path opacity="0.1" d="M52.3602 59.8361C52.3602 59.8361 7.02696 40.4218 1.08519 75.4342C1.08519 75.4342 -2.01302 80.8867 2.29779 85.3945C2.29779 85.3945 3.22544 82.9801 7.60901 85.481C9.17386 86.3573 10.8344 87.0433 12.5564 87.5249C14.8835 88.1787 17.3561 88.0443 19.6017 87.1421C19.6017 87.1421 34.5107 86.3208 47.049 66.4557C47.049 66.4557 52.4209 63.0718 52.6937 61.8059L43.7083 62.4234C43.7083 62.4234 44.3934 69.1233 40.6768 73.1433C40.6768 73.1433 43.9811 62.7507 42.3926 62.4543C42.0713 62.3925 37.6453 62.9915 37.6453 62.9915C37.6453 62.9915 38.7912 74.6376 32.7948 80.6644C32.7948 80.6644 38.3607 68.8146 35.9355 63.2015L29.3086 64.5044C29.3086 64.5044 31.1275 76.7556 24.5673 83.8878C24.5673 83.8878 29.9573 71.2907 27.8777 64.8872L21.5237 67.0608C21.5237 67.0608 23.0576 79.0528 17.5706 84.9684C17.5706 84.9684 22.3604 69.7717 20.1049 67.6784C20.1049 67.6784 14.3935 70.0372 13.1688 71.3834C13.1688 71.3834 14.0783 80.0284 10.586 83.1159C10.586 83.1159 12.7323 72.6184 11.6712 72.1861C11.6712 72.1861 5.03222 77.2743 3.01323 81.6648C3.01323 81.6648 5.53545 74.9587 10.8345 71.1672C10.8345 71.1672 6.38428 70.4015 2.9526 72.2973C2.9526 72.2973 5.25049 67.8451 12.4412 69.9569C12.4412 69.9569 17.7706 66.2025 18.8377 66.2519C18.8377 66.2519 12.035 63.1644 7.1179 63.5411C7.1179 63.5411 12.3867 60.4536 20.5051 65.6159L26.8349 63.2817C26.8349 63.2817 18.0495 58.6937 13.6417 58.7122C13.6417 58.7122 19.4986 56.4089 28.484 62.8309L34.9654 61.4786C34.9654 61.4786 27.6898 56.94 22.7848 55.884C22.7848 55.884 28.672 54.9393 36.8389 61.1699L41.277 60.787C41.277 60.787 35.9052 57.5698 34.2803 56.7856C32.6554 56.0014 32.7281 55.4888 32.7281 55.4888C36.5956 56.1727 40.2 57.9387 43.1384 60.5894C43.1384 60.5894 52.3178 60.4103 52.3602 59.8361Z" fill="#6C63FF"/>
</g>
<g opacity="0.1">
<path opacity="0.1" d="M50.6869 25.0336C50.6869 25.0336 34.5957 -12.8008 11.5016 4.551C11.5016 4.551 6.60871 5.99596 6.65115 11.1583C6.65115 11.1583 8.55494 10.2629 9.75542 14.289C10.2043 15.7188 10.8147 17.0906 11.5743 18.3769C12.5791 20.107 14.1092 21.4573 15.9337 22.2239V22.2239C15.9337 22.2239 25.2465 30.3873 43.8236 25.861C43.8236 25.861 48.9105 26.9725 49.7835 26.3736L44.1025 21.52C44.1025 21.52 40.7678 25.8981 36.2933 26.1142C36.2933 26.1142 44.0722 21.8534 43.29 20.7543C43.1324 20.532 40.1736 18.3213 40.1736 18.3213C40.1736 18.3213 34.3349 25.9043 27.4413 26.0216C27.4413 26.0216 37.3786 22.2054 39.0762 17.4692L34.4138 14.3817C34.4138 14.3817 28.6296 22.7118 20.7538 23.144C20.7538 23.144 31.0003 18.8215 33.3467 13.7827L28.3568 11.3868C28.3568 11.3868 22.5605 19.4143 16.0064 19.7169C16.0064 19.7169 27.3503 13.4677 27.1745 10.9175C27.1745 10.9175 22.4635 9.0032 20.972 9.11435C20.972 9.11435 16.6855 14.7645 12.8597 14.604C12.8597 14.604 20.008 9.60835 19.6139 8.73767C19.6139 8.73767 12.8233 7.91022 9.16731 9.35518C9.16731 9.35518 14.4179 6.83576 19.6867 7.66322C19.6867 7.66322 17.4737 4.61893 14.3876 3.77295C14.3876 3.77295 18.2437 2.45766 21.3358 7.88552C21.3358 7.88552 26.5985 8.74385 27.2109 9.38605C27.2109 9.38605 24.9069 3.58769 21.7542 0.975653C21.7542 0.975653 26.6046 2.21067 28.5448 9.97268L33.6074 12.2636C33.6074 12.2636 30.9578 4.43985 28.2962 1.90191C28.2962 1.90191 33.0678 3.92732 34.8139 12.9552L39.4158 15.9131C39.4158 15.9131 37.6272 8.99702 35.3111 5.55135C35.3111 5.55135 39.3369 8.39804 40.7072 16.8393L43.5568 19.1858C43.5568 19.1858 42.1623 14.1594 41.6348 12.7514C41.1074 11.3435 41.4408 11.0842 41.4408 11.0842C43.3526 13.7362 44.5048 16.8763 44.7694 20.1553C44.7694 20.1553 50.3595 25.3547 50.6869 25.0336Z" fill="#6C63FF"/>
</g>
</g>
<defs>
<linearGradient id="paint0_linear_163_224" x1="97" y1="211" x2="533" y2="284.5" gradientUnits="userSpaceOnUse">
<stop stop-color="#6C63FF"/>
<stop offset="1" stop-color="#FC9494"/>
</linearGradient>
<clipPath id="clip0_163_224">
<rect width="667" height="452" fill="white"/>
</clipPath>
</defs>
</svg>
