<svg width="777" height="650" viewBox="0 0 777 650" fill="none" xmlns="http://www.w3.org/2000/svg">
<path opacity="0.1" d="M152.995 625C180.368 625 202.558 616.974 202.558 607.073C202.558 597.173 180.368 589.147 152.995 589.147C125.622 589.147 103.432 597.173 103.432 607.073C103.432 616.974 125.622 625 152.995 625Z" fill="#827CE0"/>
<path opacity="0.1" d="M621.63 388.247C694.736 388.247 754 383.566 754 377.791C754 372.017 694.736 367.335 621.63 367.335C548.524 367.335 489.26 372.017 489.26 377.791C489.26 383.566 548.524 388.247 621.63 388.247Z" fill="#827CE0"/>
<g opacity="0.5">
<path opacity="0.5" d="M541.603 138.483C543.439 138.483 545.199 139.352 546.498 140.897C547.796 142.443 548.525 144.539 548.525 146.725V375.877H534.68V146.717C534.682 144.532 535.412 142.438 536.71 140.894C538.008 139.35 539.768 138.483 541.603 138.483Z" fill="#827CE0"/>
<path opacity="0.5" d="M693.501 138.483C695.337 138.483 697.098 139.352 698.396 140.897C699.694 142.443 700.424 144.539 700.424 146.725V375.877H686.544V146.717C686.545 145.632 686.726 144.557 687.076 143.556C687.427 142.554 687.94 141.645 688.586 140.88C689.233 140.115 689.999 139.509 690.843 139.098C691.686 138.687 692.59 138.478 693.501 138.483Z" fill="#827CE0"/>
<path opacity="0.5" d="M733.906 189.708C737.73 189.708 740.829 186.018 740.829 181.467C740.829 176.915 737.73 173.225 733.906 173.225L501.204 173.225C497.381 173.225 494.281 176.915 494.281 181.467C494.281 186.018 497.381 189.708 501.204 189.708L733.906 189.708Z" fill="#827CE0"/>
<path opacity="0.5" d="M530.564 156.961C530.564 153.395 528.136 150.505 525.141 150.505C522.145 150.505 519.717 153.395 519.717 156.961V205.955C519.717 209.521 522.145 212.412 525.141 212.412C528.136 212.412 530.564 209.521 530.564 205.955V156.961Z" fill="#827CE0"/>
<path opacity="0.5" d="M519.717 162.753C519.717 159.187 517.289 156.296 514.293 156.296C511.298 156.296 508.869 159.187 508.869 162.753V200.172C508.869 203.738 511.298 206.629 514.293 206.629C517.289 206.629 519.717 203.738 519.717 200.172V162.753Z" fill="#827CE0"/>
<path opacity="0.5" d="M704.539 205.955C704.539 209.521 706.967 212.412 709.963 212.412C712.958 212.412 715.387 209.521 715.387 205.955V156.961C715.387 153.395 712.958 150.505 709.963 150.505C706.967 150.505 704.539 153.395 704.539 156.961V205.955Z" fill="#827CE0"/>
<path opacity="0.5" d="M715.387 200.164C715.387 203.73 717.815 206.621 720.81 206.621C723.806 206.621 726.234 203.73 726.234 200.164V162.745C726.234 159.179 723.806 156.288 720.81 156.288C717.815 156.288 715.387 159.179 715.387 162.745V200.164Z" fill="#827CE0"/>
</g>
<g opacity="0.5">
<path opacity="0.5" d="M603.73 234.395H632.034C635.106 234.395 638.053 235.847 640.225 238.434C642.397 241.02 643.618 244.527 643.618 248.184V306.069H592.174V248.184C592.174 244.533 593.391 241.03 595.557 238.445C597.723 235.86 600.663 234.403 603.73 234.395Z" fill="#827CE0"/>
<path opacity="0.5" d="M621.63 300.869H614.101V330.744H621.63V300.869Z" fill="#827CE0"/>
<path opacity="0.5" d="M606.571 334.475H599.042V364.35H606.571V334.475Z" fill="#827CE0"/>
<path opacity="0.5" d="M637.942 334.475H630.413V364.35H637.942V334.475Z" fill="#827CE0"/>
<path opacity="0.5" d="M643.59 328.497H592.147V336.714H643.59V328.497Z" fill="#827CE0"/>
</g>
<path opacity="0.1" d="M381.351 576.452C537.264 576.452 663.657 565.419 663.657 551.809C663.657 538.199 537.264 527.166 381.351 527.166C225.437 527.166 99.0443 538.199 99.0443 551.809C99.0443 565.419 225.437 576.452 381.351 576.452Z" fill="#827CE0"/>
<path d="M454.441 464.05C454.441 464.05 473.888 474.506 483.298 474.506C483.298 474.506 493.334 477.491 498.969 480.484C504.604 483.477 526.571 484.962 526.571 484.962C526.571 484.962 552.293 496.164 555.428 501.396C558.562 506.628 567.972 482.739 567.972 482.739L562.95 467.806L468.239 446.148L454.441 464.05Z" fill="#FFB9B9"/>
<path opacity="0.05" d="M454.441 464.05C454.441 464.05 473.888 474.506 483.298 474.506C483.298 474.506 493.334 477.491 498.969 480.484C504.604 483.477 526.571 484.962 526.571 484.962C526.571 484.962 552.293 496.164 555.428 501.396C558.562 506.628 567.972 482.739 567.972 482.739L562.95 467.806L468.239 446.148L454.441 464.05Z" fill="black"/>
<path d="M550.426 496.918C550.426 496.918 562.344 515.575 557.329 526.793C552.314 538.011 554.194 537.995 557.329 538.741C560.463 539.488 578.029 543.973 579.916 527.539C581.803 511.105 585.565 474.514 585.565 474.514L559.809 471.521C559.809 471.521 566.738 499.157 550.426 496.918Z" fill="#737A9D"/>
<path d="M402.371 439.407L456.322 469.282C456.322 469.282 473.261 453.594 471.994 445.385L409.26 427.459L402.371 439.407Z" fill="#4C4C78"/>
<path opacity="0.1" d="M402.371 439.407L456.322 469.282C456.322 469.282 473.261 453.594 471.994 445.385L409.26 427.459L402.371 439.407Z" fill="black"/>
<path d="M628.845 478.245L623.176 494.671L610.026 498.386C606.341 494.725 602.4 491.447 598.245 488.587C591.166 483.72 581.851 478.959 573.034 479.713C573.034 479.713 537.903 472.989 536.022 469.979C536.022 469.979 513.435 464.001 508.42 464.748C506.001 465.104 500.802 463.036 496.073 460.789C490.997 458.356 486.459 455.784 486.459 455.784L502.771 425.163C504.674 426.138 506.632 426.951 508.631 427.596C514.865 429.77 526.088 432.593 542.298 432.593C568.646 432.593 605.031 464.707 605.031 464.707C605.031 464.707 605.393 464.853 606.013 465.072C608.738 466.053 616.506 468.365 620.09 464.707C624.451 460.319 628.845 478.245 628.845 478.245Z" fill="#FFB9B9"/>
<path opacity="0.1" d="M628.845 478.245L623.176 494.671L610.026 498.386C606.341 494.725 602.4 491.447 598.245 488.587C617.378 490.299 605.951 465.153 605.951 465.153H605.992C608.718 466.135 616.485 468.446 620.069 464.788C624.451 460.319 628.845 478.245 628.845 478.245Z" fill="black"/>
<path d="M598.32 489.22C598.32 489.22 613.494 514.553 607.11 528.821C600.725 543.089 603.117 543.081 607.11 544.038C611.103 544.995 633.472 550.698 635.864 529.778C637.703 513.693 636.089 482.82 635.244 469.42C635.19 468.574 634.995 467.749 634.671 466.994C634.347 466.238 633.9 465.567 633.356 465.019C632.812 464.471 632.182 464.057 631.502 463.802C630.823 463.546 630.107 463.454 629.397 463.531L607.205 465.964C607.205 465.964 619.088 492.075 598.32 489.22Z" fill="#737A9D"/>
<path d="M238.003 514.09L238.63 550.69L245.533 556.66H269.374L273.762 549.197V514.09L266.86 506.62H244.279L238.003 514.09Z" fill="#827CE0"/>
<path opacity="0.2" d="M241.765 514.837C241.765 514.837 246.159 548.443 241.765 551.436L238.63 550.69L238.003 514.845L241.765 514.837Z" fill="white"/>
<path d="M293.208 511.851L298.23 505.873H322.078L327.1 511.851C327.1 511.851 333.375 533.509 328.353 547.697L322.691 554.421H298.843L293.195 548.443L293.208 511.851Z" fill="#827CE0"/>
<path opacity="0.1" d="M238.003 514.09L238.63 550.69L245.533 556.66H269.374L273.762 549.197V514.09L266.86 506.62H244.279L238.003 514.09Z" fill="black"/>
<path opacity="0.1" d="M293.208 511.851L298.23 505.873H322.078L327.1 511.851C327.1 511.851 333.375 533.509 328.353 547.697L322.691 554.421H298.843L293.195 548.443L293.208 511.851Z" fill="black"/>
<path opacity="0.2" d="M298.843 513.344C298.843 513.344 303.865 539.488 298.843 548.443H293.195V511.851L298.843 513.344Z" fill="white"/>
<path d="M273.762 387.874C273.762 387.874 276.269 417.003 276.269 420.734C276.269 424.465 275.016 449.125 278.777 473.013C282.538 496.902 276.269 526.777 276.269 526.777H296.969L305.752 446.115L299.477 403.546L296.969 390.105L273.762 387.874Z" fill="#FFB9B9"/>
<path opacity="0.05" d="M273.762 387.874C273.762 387.874 276.269 417.003 276.269 420.734C276.269 424.465 275.016 449.125 278.777 473.013C282.538 496.902 276.269 526.777 276.269 526.777H296.969L305.752 446.115L299.477 403.546L296.969 390.105L273.762 387.874Z" fill="black"/>
<path d="M270.001 313.937C270.001 313.937 242.398 314.683 264.352 369.201C264.352 369.201 270.001 391.605 270.001 395.345C270.001 399.084 298.23 399.076 301.344 395.345C304.458 391.613 296.322 360.992 296.322 346.797C296.322 332.602 288.193 309.459 270.001 313.937Z" fill="#CBCDDA"/>
<path opacity="0.05" d="M270.001 313.937C270.001 313.937 242.398 314.683 264.352 369.201C264.352 369.201 270.001 391.605 270.001 395.345C270.001 399.084 298.23 399.076 301.344 395.345C304.458 391.613 296.322 360.992 296.322 346.797C296.322 332.602 288.193 309.459 270.001 313.937Z" fill="black"/>
<path d="M236.75 281.807C236.75 281.807 260.598 312.428 280.664 290.024L278.157 369.193C278.157 369.193 245.533 322.146 222.965 325.877L236.75 281.807Z" fill="#FFB9B9"/>
<path opacity="0.1" d="M508.604 427.686C507.65 436.438 504.652 454.868 496.046 460.838C490.97 458.404 486.432 455.833 486.432 455.833L502.744 425.212C504.645 426.2 506.604 427.027 508.604 427.686Z" fill="black"/>
<path d="M507.139 422.948C507.139 422.948 505.258 459.548 490.2 462.533L399.25 443C394.836 442.046 390.686 439.817 387.163 436.511C383.49 433.072 378.986 428.399 376.322 424.117C374.878 421.78 374.005 419.55 374.148 417.708C374.775 409.491 402.378 390.072 392.968 355.72C394.306 354.459 395.794 353.442 397.383 352.702C405.239 348.817 423.323 345.961 449.426 378.124C449.426 378.164 497.729 424.473 507.139 422.948Z" fill="#4C4C78"/>
<path d="M261.218 517.075L261.845 553.675L268.74 559.653H292.581L296.976 552.182V517.075L290.074 509.613H267.486L261.218 517.075Z" fill="#827CE0"/>
<path opacity="0.2" d="M264.979 517.854C264.979 517.854 269.374 551.46 264.979 554.454L261.845 553.707L261.218 517.854H264.979Z" fill="white"/>
<path d="M330.227 514.09L335.249 508.112H359.097L364.119 514.09C364.119 514.09 370.394 535.748 365.372 549.935L359.724 556.66H335.876L330.227 550.682V514.09Z" fill="#827CE0"/>
<path opacity="0.2" d="M335.869 515.583C335.869 515.583 340.891 541.726 335.869 550.682H330.22V514.09L335.869 515.583Z" fill="white"/>
<path d="M296.799 528.286H330.738C333.396 528.286 335.549 531.125 335.549 534.637C335.549 538.141 333.396 540.988 330.738 540.988H296.799C293.917 540.988 291.682 537.671 292.029 533.899C292.309 530.695 294.367 528.286 296.799 528.286Z" fill="#827CE0"/>
<path opacity="0.1" d="M394.842 411.771C388.13 417.368 381.058 421.034 376.315 424.157C374.871 421.821 373.999 419.59 374.142 417.749C374.768 409.532 402.371 390.113 392.961 355.76C394.299 354.499 395.787 353.482 397.376 352.743C398.85 352.706 400.316 352.466 401.744 352.029C401.744 352.029 407.386 401.315 394.842 411.771Z" fill="black"/>
<path d="M254.002 339.699C254.002 339.699 263.412 350.901 272.508 357.999C280.903 364.545 265.919 298.622 265.919 298.622C265.919 298.622 275.213 289.699 280.671 284.403C284.316 280.833 288.96 279.036 293.672 279.373C306.229 280.339 329.232 286.625 347.793 316.93C374.768 360.992 399.237 352.029 399.237 352.029C399.237 352.029 404.885 401.323 392.334 411.779C379.783 422.235 365.986 425.966 368.486 431.944C370.987 437.922 357.196 402.816 325.825 396.845C294.455 390.875 259.95 364.732 260.584 352.037C260.591 352.029 251.495 343.455 254.002 339.699Z" fill="#CBCDDA"/>
<path opacity="0.1" d="M247.413 301.275C247.41 299.115 247.25 296.961 246.936 294.834C238.719 289.967 239.884 283.348 239.884 283.348L226.079 327.41C231.128 326.599 236.682 328.286 242.255 331.466C249.594 324.563 247.413 313.191 247.413 301.275Z" fill="black"/>
<path d="M219.811 337.842C237.136 337.842 251.181 321.121 251.181 300.496C251.181 279.871 237.136 263.15 219.811 263.15C202.485 263.15 188.44 279.871 188.44 300.496C188.44 321.121 202.485 337.842 219.811 337.842Z" fill="#FFB9B9"/>
<path opacity="0.1" d="M191.309 308.916C190.73 311.13 189.837 313.41 188.154 314.594C186.11 316.038 183.289 315.324 181.47 313.458C179.651 311.593 178.669 308.802 178.158 306.012C177.422 301.972 177.539 297.777 178.499 293.804C179.317 290.438 180.727 287.315 181.32 283.867C181.954 280.201 181.633 276.364 182.342 272.714C183.303 267.766 186.042 263.621 188.713 259.654C189.55 258.14 190.635 256.843 191.903 255.839C193.171 254.836 194.596 254.147 196.092 253.814L209.222 249.101C211.711 248.108 214.27 247.381 216.867 246.927C220.206 246.52 223.58 246.872 226.808 247.965C229.379 248.735 231.819 250.031 234.017 251.794C236.196 253.721 238.114 256.032 239.707 258.648C246.65 269.453 250.609 287.128 257.77 297.762C254.942 298.801 252.115 295.329 249.287 296.383C248.885 296.59 248.437 296.632 248.013 296.505C247.592 296.233 247.263 295.798 247.079 295.272C244.587 290.09 240.665 286.095 235.98 283.965C232.505 282.399 227.803 282.407 225.902 286.203C224.614 288.767 225.132 292.003 225.473 294.964C225.814 297.925 225.752 301.453 223.783 303.278C222.695 304.154 221.429 304.664 220.117 304.755C214.006 305.708 207.792 304.984 201.952 302.637C199.908 301.826 197.83 299.287 195.67 300.098C192.753 301.194 192.079 305.971 191.309 308.916Z" fill="black"/>
<path d="M190.621 308.097C190.042 310.311 189.149 312.59 187.466 313.775C185.422 315.219 182.601 314.505 180.782 312.639C178.962 310.773 177.981 307.983 177.47 305.193C176.734 301.152 176.851 296.958 177.811 292.985C178.629 289.618 180.039 286.495 180.632 283.048C181.265 279.382 180.945 275.545 181.654 271.895C182.615 266.946 185.354 262.801 188.025 258.835C188.862 257.321 189.947 256.023 191.215 255.02C192.482 254.016 193.907 253.327 195.404 252.995L208.534 248.282C211.024 247.292 213.582 246.567 216.179 246.116C219.518 245.709 222.892 246.061 226.12 247.154C228.691 247.924 231.13 249.22 233.329 250.983C235.508 252.91 237.426 255.221 239.019 257.837C245.962 268.642 249.921 286.317 257.082 296.951C254.254 297.99 251.426 294.518 248.599 295.572C248.197 295.779 247.749 295.821 247.325 295.694C246.899 295.425 246.564 294.99 246.377 294.461C243.886 289.279 239.964 285.283 235.278 283.153C231.803 281.588 227.101 281.596 225.2 285.392C223.913 287.955 224.43 291.192 224.771 294.153C225.112 297.113 225.05 300.642 223.081 302.467C221.993 303.343 220.727 303.853 219.416 303.943C213.304 304.897 207.09 304.173 201.25 301.826C199.206 301.015 197.128 298.476 194.968 299.287C192.065 300.374 191.391 305.152 190.621 308.097Z" fill="#B96B6B"/>
<g opacity="0.1">
<path opacity="0.1" d="M268.045 296.586L265.919 298.63C265.919 298.63 274.702 337.266 275.05 352.443C279.533 350.999 270.907 309.662 268.045 296.586Z" fill="black"/>
<path opacity="0.1" d="M393.554 405.801C381.01 416.256 367.205 419.988 369.706 425.966C372.207 431.944 358.416 396.837 327.045 390.867C297.617 385.262 265.429 361.909 262.076 348.557C257.375 343.771 253.954 339.707 253.954 339.707C251.447 343.439 260.543 352.029 260.543 352.029C259.916 364.724 294.421 390.867 325.785 396.837C357.148 402.807 370.953 437.914 368.445 431.936C365.938 425.958 379.736 422.202 392.293 411.771C395.884 408.778 397.983 402.605 399.155 395.312C397.942 399.928 396.143 403.667 393.554 405.801Z" fill="black"/>
</g>
<path d="M330.227 477.499C328.347 480.484 327.093 511.105 327.093 511.105C327.093 511.105 334.588 555.167 311.421 550.69C288.255 546.212 308.287 514.845 308.287 514.845L305.153 471.529C293.235 434.216 295.743 407.301 295.743 407.301L293.515 382.91L292.602 372.949L319.577 365.478C318.841 366.646 319.155 373.93 319.816 382.391C320.845 395.645 322.712 411.779 322.712 411.779C328.34 419.241 332.108 474.506 330.227 477.499Z" fill="#FFB9B9"/>
<path opacity="0.1" d="M291.954 298.257C291.954 298.257 264.352 299.003 286.306 353.521C286.306 353.521 291.954 375.926 291.954 379.665C291.954 383.405 320.184 383.396 323.298 379.665C326.411 375.934 318.276 345.312 318.276 331.117C318.276 316.922 310.147 293.771 291.954 298.257Z" fill="black"/>
<path opacity="0.1" d="M319.795 382.391C313.936 384.297 299.572 384.467 293.488 382.91L292.574 372.949L319.55 365.478C318.828 366.638 319.141 373.922 319.795 382.391Z" fill="black"/>
<path d="M290.701 298.257C290.701 298.257 263.098 299.003 285.052 353.521C285.052 353.521 290.701 375.926 290.701 379.665C290.701 383.405 318.93 383.396 322.044 379.665C325.158 375.934 317.022 345.312 317.022 331.117C317.022 316.922 308.893 293.771 290.701 298.257Z" fill="#CBCDDA"/>
<g opacity="0.5">
<path opacity="0.5" d="M110.13 415.17L90.1524 415.656L86.8954 420.994V439.439L90.97 442.838H110.13L114.212 437.501V420.028L110.13 415.17Z" fill="#827CE0"/>
<path opacity="0.2" d="M109.728 418.082C109.728 418.082 91.3788 421.48 89.7503 418.082L90.1592 415.648L109.728 415.161V418.082Z" fill="white"/>
<path opacity="0.5" d="M111.765 468.56L115.029 472.445V490.891L111.765 494.777C111.765 494.777 99.9437 499.644 92.1965 495.75L88.5239 491.378V472.932L91.7877 468.56H111.765Z" fill="#827CE0"/>
<path opacity="0.2" d="M110.948 472.932C110.948 472.932 96.6799 476.818 91.7876 472.932V468.56H111.765L110.948 472.932Z" fill="white"/>
<path opacity="0.5" d="M104.018 442.708V468.966C103.971 470.006 103.579 470.981 102.929 471.679C102.28 472.377 101.424 472.74 100.55 472.689C99.6761 472.74 98.8207 472.377 98.1708 471.679C97.521 470.981 97.1295 470.006 97.0819 468.966V442.708C97.0819 440.478 98.8944 438.75 100.952 439.009C101.757 439.067 102.515 439.476 103.081 440.159C103.647 440.842 103.981 441.75 104.018 442.708Z" fill="#827CE0"/>
<path opacity="0.5" d="M142.127 415.916L122.15 416.402L118.886 421.74V440.186L122.967 443.584H142.127L146.202 438.247V420.775L142.127 415.916Z" fill="#827CE0"/>
<path opacity="0.2" d="M141.719 418.836C141.719 418.836 123.369 422.235 121.741 418.836L122.15 416.402L141.719 415.916V418.836Z" fill="white"/>
<path opacity="0.5" d="M143.756 469.314L147.02 473.2V491.646L143.756 495.531C143.756 495.531 131.934 500.398 124.187 496.504L120.514 492.132V473.678L123.778 469.306L143.756 469.314Z" fill="#827CE0"/>
<path opacity="0.2" d="M142.945 473.678C142.945 473.678 128.677 477.564 123.785 473.678V469.306H143.763L142.945 473.678Z" fill="white"/>
<path opacity="0.5" d="M135.995 443.455V469.712C135.948 470.752 135.556 471.728 134.906 472.425C134.256 473.123 133.401 473.486 132.527 473.435C131.653 473.486 130.798 473.123 130.148 472.425C129.498 471.728 129.106 470.752 129.059 469.712V443.455C129.059 441.224 130.871 439.496 132.929 439.756C133.733 439.813 134.492 440.222 135.058 440.905C135.624 441.588 135.958 442.496 135.995 443.455Z" fill="#827CE0"/>
<path opacity="0.5" d="M182.86 429.965L166.412 430.362L163.727 434.759V449.944L167.086 452.734H182.86L186.212 448.338V433.956L182.86 429.965Z" fill="#827CE0"/>
<path opacity="0.2" d="M182.519 432.358C182.519 432.358 167.413 435.156 166.071 432.358L166.405 430.362L182.512 429.965L182.519 432.358Z" fill="white"/>
<path opacity="0.5" d="M184.202 473.914L186.887 477.11V492.294L184.202 495.49C184.202 495.49 174.472 499.489 168.095 496.302L165.069 492.708V477.507L167.754 473.914H184.202Z" fill="#827CE0"/>
<path opacity="0.2" d="M183.528 477.507C183.528 477.507 171.781 480.703 167.754 477.507V473.914H184.202L183.528 477.507Z" fill="white"/>
<path opacity="0.5" d="M177.825 452.629V474.246C177.782 475.1 177.459 475.899 176.924 476.47C176.389 477.041 175.687 477.338 174.97 477.296C174.25 477.338 173.546 477.039 173.011 476.465C172.476 475.89 172.153 475.086 172.115 474.23V452.629C172.138 452.172 172.242 451.725 172.419 451.319C172.596 450.912 172.843 450.554 173.143 450.267C173.444 449.981 173.791 449.772 174.163 449.655C174.535 449.538 174.923 449.515 175.303 449.587C175.965 449.634 176.588 449.971 177.054 450.532C177.519 451.094 177.794 451.841 177.825 452.629Z" fill="#827CE0"/>
<path opacity="0.5" d="M209.195 430.573L192.747 430.979L190.062 435.367V450.552L193.421 453.351H209.195L212.554 448.954V434.572L209.195 430.573Z" fill="#827CE0"/>
<path opacity="0.2" d="M208.861 432.974C208.861 432.974 193.755 435.773 192.413 432.974L192.747 430.979L208.854 430.581L208.861 432.974Z" fill="white"/>
<path opacity="0.5" d="M210.537 474.53L213.222 477.726V492.911L210.537 496.107C210.537 496.107 200.807 500.106 194.43 496.918L191.411 493.325V478.107L194.096 474.514L210.537 474.53Z" fill="#827CE0"/>
<path opacity="0.2" d="M209.87 478.107C209.87 478.107 198.123 481.303 194.096 478.107V474.514H210.537L209.87 478.107Z" fill="white"/>
<path opacity="0.5" d="M204.132 453.245V474.863C204.094 475.719 203.771 476.523 203.236 477.097C202.701 477.672 201.997 477.971 201.277 477.929C200.558 477.971 199.853 477.672 199.318 477.097C198.783 476.523 198.461 475.719 198.422 474.863V453.245C198.446 452.788 198.55 452.342 198.727 451.935C198.904 451.528 199.151 451.17 199.451 450.884C199.751 450.597 200.099 450.389 200.471 450.272C200.843 450.155 201.231 450.131 201.611 450.203C202.273 450.251 202.896 450.587 203.362 451.149C203.827 451.711 204.102 452.457 204.132 453.245Z" fill="#827CE0"/>
</g>
<g opacity="0.8">
<path opacity="0.8" d="M138.843 560.845C138.843 560.845 129.188 556.952 124.534 567.083C123.308 569.829 122.684 572.899 122.72 576.009C122.756 579.118 123.45 582.167 124.739 584.872C127.791 591.442 134.08 599.968 145.998 599.213C156.109 598.572 159.468 589.382 160.381 580.841C160.731 577.637 160.383 574.38 159.373 571.381C158.362 568.383 156.722 565.744 154.609 563.716C152.496 561.689 149.981 560.341 147.306 559.801C144.63 559.261 141.883 559.548 139.327 560.635L138.843 560.845Z" fill="#827CE0"/>
<path opacity="0.1" d="M126.79 585.772C125.501 583.067 124.807 580.019 124.771 576.909C124.735 573.8 125.359 570.73 126.585 567.984C131.232 557.852 140.894 561.746 140.894 561.746L141.392 561.535C145.073 559.949 149.118 560.056 152.736 561.835C150.738 560.416 148.499 559.543 146.183 559.279C143.866 559.015 141.529 559.367 139.341 560.31L138.843 560.521C138.843 560.521 129.188 556.627 124.534 566.759C123.308 569.505 122.684 572.575 122.72 575.684C122.756 578.794 123.45 581.842 124.739 584.548C126.783 588.871 130.19 594.038 135.641 596.853C131.898 594.188 128.837 590.357 126.79 585.772Z" fill="white"/>
<path opacity="0.2" d="M133.856 565.712C133.856 565.712 137.433 569.062 146.12 565.712H133.856Z" fill="black"/>
<path opacity="0.8" d="M133.092 541.378C133.092 541.378 139.225 561.17 138.721 566.345L143.579 565.737C143.579 565.737 135.402 548.386 137.446 541.402L133.092 541.378Z" fill="#827CE0"/>
<path opacity="0.2" d="M133.092 541.378C133.092 541.378 139.225 561.17 138.721 566.345L143.579 565.737C143.579 565.737 135.402 548.386 137.446 541.402L133.092 541.378Z" fill="black"/>
<path opacity="0.8" d="M158.14 543C158.14 543 148.478 537.119 144.158 541.978C139.838 546.837 139.17 559.256 139.17 559.256C139.17 559.256 154.924 561.843 158.14 543Z" fill="#827CE0"/>
<path opacity="0.1" d="M158.14 543C158.14 543 148.478 537.119 144.158 541.978C139.838 546.837 139.17 559.256 139.17 559.256C139.17 559.256 154.924 561.843 158.14 543Z" fill="white"/>
<path opacity="0.8" d="M139.17 559.223C139.17 559.223 141.705 544.809 158.14 543" stroke="#6C63FF" stroke-miterlimit="10"/>
</g>
<path d="M179.603 578.764C179.603 578.764 169.948 574.87 165.294 585.002C164.068 587.748 163.444 590.818 163.48 593.927C163.515 597.037 164.21 600.085 165.499 602.791C168.551 609.361 174.84 617.886 186.757 617.132C196.869 616.491 200.228 607.301 201.141 598.759C201.49 595.555 201.143 592.298 200.132 589.3C199.122 586.302 197.481 583.662 195.369 581.635C193.256 579.607 190.741 578.259 188.065 577.719C185.39 577.18 182.643 577.467 180.087 578.553L179.603 578.764Z" fill="#827CE0"/>
<path opacity="0.1" d="M167.57 603.699C166.281 600.994 165.587 597.945 165.551 594.836C165.515 591.726 166.139 588.656 167.365 585.91C172.012 575.779 181.674 579.672 181.674 579.672L182.172 579.462C185.853 577.876 189.898 577.983 193.517 579.762C191.518 578.342 189.279 577.469 186.963 577.206C184.646 576.942 182.309 577.294 180.121 578.237L179.623 578.448C179.623 578.448 169.968 574.554 165.315 584.685C164.088 587.431 163.464 590.501 163.5 593.611C163.536 596.721 164.23 599.769 165.519 602.474C167.563 606.798 170.97 611.965 176.421 614.779C172.678 612.115 169.617 608.283 167.57 603.699Z" fill="white"/>
<path opacity="0.2" d="M174.636 583.631C174.636 583.631 178.213 586.981 186.9 583.631H174.636Z" fill="black"/>
<path d="M173.866 559.28C173.866 559.28 179.998 579.072 179.494 584.247L184.352 583.639C184.352 583.639 176.176 566.288 178.22 559.304L173.866 559.28Z" fill="#827CE0"/>
<path opacity="0.2" d="M173.866 559.28C173.866 559.28 179.998 579.072 179.494 584.247L184.352 583.639C184.352 583.639 176.176 566.288 178.22 559.304L173.866 559.28Z" fill="black"/>
<path d="M198.92 560.927C198.92 560.927 189.258 555.046 184.938 559.905C180.618 564.763 179.95 577.182 179.95 577.182C179.95 577.182 195.704 579.762 198.92 560.927Z" fill="#827CE0"/>
<path opacity="0.1" d="M198.92 560.927C198.92 560.927 189.258 555.046 184.938 559.905C180.618 564.763 179.95 577.182 179.95 577.182C179.95 577.182 195.704 579.762 198.92 560.927Z" fill="white"/>
<path d="M179.95 577.182C179.95 577.182 182.485 562.768 198.92 560.959" stroke="#6C63FF" stroke-miterlimit="10"/>
<path d="M101.926 531.782C101.926 531.782 102.874 530.524 101.095 530.021V527.953H102.165C102.164 525.453 101.442 523.028 100.12 521.085C98.7982 519.142 96.956 517.798 94.9015 517.278V514.772H95.1809V511.527H88.299V514.772H88.4966V517.311C86.4694 517.859 84.6587 519.21 83.3613 521.144C82.0639 523.077 81.3568 525.478 81.3558 527.953H82.3098V529.94C82.3098 529.94 80.0476 531.214 82.3098 533.485C84.5719 535.756 84.2176 537.452 84.2176 537.452C84.2176 537.452 83.2637 541.702 81.3626 542.27V581.814C81.3626 584.144 82.1401 586.378 83.524 588.026C84.9079 589.673 86.7848 590.599 88.7419 590.599H94.5745C96.5257 590.59 98.3946 589.662 99.7724 588.017C101.15 586.372 101.925 584.145 101.926 581.822V542.27C101.926 542.27 98.5946 539.293 99.201 537.452C99.9919 535.485 100.903 533.59 101.926 531.782Z" fill="#827CE0"/>
<path opacity="0.1" d="M15.8505 208.13C9.68612 230.845 27.81 251.274 42.065 267.726C61.5771 290.296 76.9731 317.607 87.2543 347.887C93.4507 366.186 97.7609 385.872 96.6051 405.617C93.3303 461.617 50.0032 498.928 15.3849 536.024C10.4807 541.329 5.57655 546.878 2.71911 554.029C-6.45518 576.979 9.14032 603.425 26.317 618.06C87.487 670.153 175.779 654.658 235.111 599.508C265.836 570.941 292.243 532.096 329.478 519.395C353.285 511.316 378.552 515.146 403.185 517.637C440.121 521.362 477.227 521.897 514.224 519.239C527.211 518.262 540.792 516.738 551.668 508.053C579.207 486.09 574.559 434.017 594.433 402.07C608.72 379.111 633.129 370.26 654.375 357.569C687.077 337.927 714.365 307.106 732.898 268.879C749.955 233.542 758.792 193.368 767.412 153.762C773.914 124.003 780.439 92.8372 774.933 62.7756C769.427 32.714 747.691 4.64539 722.488 7.28323C703.136 9.30557 687.741 27.917 669.104 34.58C624.46 50.5829 581.117 -4.99738 534.804 0.366225C505.644 3.7368 482.126 30.6525 464.347 58.9849C446.569 87.3172 431.519 119.216 408.042 140.553C371.521 173.77 321.484 174.942 276.776 164.186C232.068 153.429 189.175 132.258 143.97 125.204C117.338 121.052 96.9262 140.367 72.943 150.987C50.9343 160.737 24.0054 178.088 15.8505 208.13Z" fill="#0A00A5"/>
</svg>
