<svg width="224" height="223" viewBox="0 0 224 223" fill="none" xmlns="http://www.w3.org/2000/svg">
<path opacity="0.1" d="M2.17261 73.9871C0.542037 81.6758 5.98392 88.4383 10.267 93.8867C16.13 101.361 20.8268 110.459 24.0527 120.589C25.9973 126.711 27.4016 133.313 27.2109 139.969C26.671 158.848 14.3015 171.691 4.47239 184.406C3.08032 186.224 1.69007 188.124 0.90914 190.55C-1.59826 198.338 3.15034 207.143 8.27273 211.96C26.5145 229.108 52.1707 223.322 69.0793 204.369C77.8355 194.551 85.2549 181.3 96.029 176.784C102.918 173.91 110.322 175.037 117.53 175.717C128.339 176.734 139.174 176.675 149.953 175.542C153.736 175.129 157.689 174.528 160.799 171.534C168.674 163.961 166.931 146.455 172.495 135.569C176.494 127.746 183.553 124.608 189.66 120.198C199.06 113.373 206.796 102.819 211.922 89.8268C216.638 77.8174 218.919 64.2324 221.141 50.8397C222.817 40.7768 224.491 30.24 222.66 20.1525C220.83 10.0649 214.277 0.752994 206.94 1.80354C201.306 2.60916 196.951 8.97553 191.56 11.3392C178.648 17.0155 165.584 -1.4216 152.106 0.682756C143.619 2.00553 136.955 11.2206 131.976 20.8758C126.997 30.531 122.841 41.3694 116.147 48.7057C105.733 60.1265 91.1368 60.8434 78.0073 57.5091C64.8778 54.1748 52.2003 47.3218 38.9531 45.2376C31.1487 44.0108 25.3343 50.6464 18.4128 54.3769C12.0611 57.8019 4.32978 63.8182 2.17261 73.9871Z" fill="#827CE0"/>
</svg>
